<svg xmlns="http://www.w3.org/2000/svg" viewBox="0 0 500 500"><g id="freepik--background-complete--inject-20"><path d="M262.73709,434.2849l-8.6354-132.6703,.2921-.0208,9.8068,132.589c-.4881,.0364-.9754,.0701-1.4635,.1021Zm-26.7966-.0917l-1.275-.0987,10.6023-132.5266,.4795,.0363-9.8068,132.589Zm55.2502-3.9756l-29.0068-129.7481,.6293-.1411,29.4656,129.6443-1.0881,.2449Zm-83.3098-.2094l-1.2516-.2882,30.2109-129.473,.4631,.1065-29.4224,129.6547Zm110.3535-7.9416l-47.7531-124.0787,.3479-.1351,48.6984,123.71c-.4293,.1697-.8604,.3376-1.2932,.5038Zm-137.5433-.4172l-1.1928-.4718,49.2419-123.4953,.4493,.1775-48.4984,123.7896Zm163.312-11.8046l-65.962-115.4334,.4431-.2545,66.5984,115.0682-1.0795,.6197Zm-188.9757-.5566c-.3947-.2276-.7889-.4579-1.1819-.6889l67.392-114.6043,.34151,.1991-66.5516,115.0941Zm212.37019-15.1889l-82.1403-104.5411,.2553-.2026,83.0059,103.8557c-.3721,.2978-.7461,.5938-1.1209,.888Zm-235.75169-.7574c-.4132-.3288-.8248-.6595-1.2347-.9927l83.9113-103.1251,.1372,.1098-82.8138,104.008Zm256.73999-18.4529l-96.89489-91.035,.30739-.3288,97.48161,90.4065-.89411,.9573Zm-277.55849-.8431l-.834-.9028,97.8581-89.9979,.3589,.3887-97.383,90.512Zm295.30689-21.0678l-109.1564-75.9014,.1618-.2346,109.8315,74.9199c-.277,.4068-.5556,.811-.8369,1.2161Zm-312.99079-1.0482c-.2627-.3834-.5242-.7695-.7834-1.1547l110.28729-74.2464,.2021,.2978-109.70599,75.1033Zm327.49939-23.6368l-119.4584-58.3582,.2718-.5574,119.6868,57.8873-.5002,1.0283Zm-341.74019-.9331c-.2038-.4216-.4063-.844-.6071-1.2672l120.14899-56.923,.1502,.3133-119.69209,57.8769Zm352.2533-25.3048l-126.73771-40.1657,.0961-.3107,127.0718,39.0993c-.1419,.4587-.2848,.9184-.43019,1.3771Zm-362.6864-1.1979c-.1328-.4303-.264-.8596-.3938-1.2897l127.3112-38.3117,.1199,.3921-127.0373,39.2093Zm369.22579-26.6568l-131.3772-20.3928,.0735-.4864,131.495,19.6258-.1913,1.2534Zm-375.54819-1.0284c-.068-.45-.1337-.9001-.1982-1.3502l131.6065-18.8572,.0571,.3895-131.4654,19.8179Zm377.82289-26.9705l-132.9456-1.1798,.0008-.5487h132.9508v.2592c0,.4904-.0017,.9807-.006,1.4693Zm-246.99539-1.3399H60.0239l.0031-1.2248,132.949,.6898-.0013,.535Zm113.4491-8.5033l-.0415-.2805,131.436-20.0092c.0744,.4864,.1462,.9729,.2164,1.4602l-131.6109,18.8295Zm-112.8185-.1978l-131.5269-19.4056c.0678-.46,.1376-.9196,.209-1.3783l131.3728,20.423-.0549,.3609Zm111.0441-7.8338l-.1861-.6067,127.0199-39.2646,.3306,1.0758-127.1644,38.7955Zm-109.1936-.3458l-127.0883-39.0439,.3904-1.2555,126.8325,39.867-.1346,.4324Zm106.1417-7.6001l-.2286-.4769,119.654-57.9548,.5314,1.104-119.9568,57.3277Zm-103.0724-.2558l-119.76299-57.7288,.5376-1.1079,119.45819,58.3581-.2328,.4786Zm98.8933-7.0942l-.3401-.5002,109.7051-75.1034,.6483,.9513-110.0133,74.6523Zm-94.6005-.3474l-109.89299-74.829c.2571-.3778,.5155-.7543,.7755-1.13l109.33909,75.6366-.2216,.3224Zm89.1008-6.6147l-.168-.1805,97.2861-90.6168c.3436,.3691,.6855,.7396,1.0256,1.111l-98.1437,89.6863Zm-83.7594-.0835L110.5868,115.677c.3094-.3342,.6205-.6674,.9326-.9997l96.9069,91.0219-.267,.2861Zm77.5732-5.7006l-.2934-.235,82.8138-104.008c.3609,.2869,.7218,.5761,1.081,.8668l-83.6014,103.3762Zm-71.2862-.1437l-83.1254-103.7596c.3722-.2982,.7453-.5946,1.1201-.8898l82.26149,104.4459-.2562,.2035Zm64.3201-4.6706l-.3835-.2228,66.4045-115.1799,1.1399,.6622-67.1609,114.7405Zm-57.2895-.1415l-66.7455-114.9825c.3938-.2285,.7886-.4553,1.1837-.6812l65.8984,115.4698-.3366,.1939Zm49.5946-3.6211l-.3479-.1381,48.4318-123.8152c.4328,.1693,.8638,.3398,1.2932,.5116l-49.3771,123.4417Zm-41.9361-.0827l-48.8689-123.6434c.4366-.1725,.8737-.3431,1.3117-.5119l47.8839,124.0276-.3267,.1277Zm33.8994-2.4374l-.3497-.0801,29.1938-129.7057c.45611,.1026,.9114,.2069,1.3658,.3128l-30.2099,129.473Zm-25.8804-.0437l-29.6516-129.6019c.4617-.1056,.9244-.2099,1.3883-.312l28.5922,129.8399-.3289,.074Zm17.4407-1.2586l-.374-.028,9.6117-132.6029c.4605,.0333,.921,.0684,1.3797,.1052l-10.6174,132.5257Zm-9.01309-.0138l-10.01631-132.573c.4587-.0345,.9188-.0674,1.3792-.0986l9.01311,132.6448-.376,.0268Z" style="fill:#f5f5f5;"></path><g><g><g><path d="M443.92039,330.1975h-180.7461c-3.2324,0-5.86229-2.6298-5.86229-5.8623V61.0618c0-3.2324,2.62989-5.8618,5.86229-5.8618h180.7461c3.2324,0,5.8623,2.6294,5.8623,5.8618V324.3352c0,3.2325-2.6299,5.8623-5.8623,5.8623ZM263.17429,55.45c-3.0947,0-5.61229,2.5176-5.61229,5.6118V324.3352c0,3.0948,2.51759,5.6123,5.61229,5.6123h180.7461c3.0947,0,5.6123-2.5175,5.6123-5.6123V61.0618c0-3.0942-2.5176-5.6118-5.6123-5.6118h-180.7461Z" style="fill:#e0e0e0;"></path><path d="M235.49269,330.1975H54.7461c-3.2324,0-5.8618-2.6298-5.8618-5.8623V61.0618c0-3.2324,2.6294-5.8618,5.8618-5.8618H235.49269c3.2324,0,5.86231,2.6294,5.86231,5.8618V324.3352c0,3.2325-2.62991,5.8623-5.86231,5.8623ZM54.7461,55.45c-3.0942,0-5.6118,2.5176-5.6118,5.6118V324.3352c0,3.0948,2.5176,5.6123,5.6118,5.6123H235.49269c3.0947,0,5.61231-2.5175,5.61231-5.6123V61.0618c0-3.0942-2.51761-5.6118-5.61231-5.6118H54.7461Z" style="fill:#e0e0e0;"></path></g><rect x="0" y="391.2669" width="500" height=".25" style="fill:#e0e0e0;"></rect></g><rect x="51.6724" y="405.5314" width="16.06" height=".25" style="fill:#e0e0e0;"></rect><rect x="170.3524" y="402.8214" width="53.53" height=".25" style="fill:#e0e0e0;"></rect><rect x="68.7324" y="414.8214" width="36.25" height=".25" style="fill:#e0e0e0;"></rect><rect x="378.35239" y="402.6914" width="43.19" height=".25" style="fill:#e0e0e0;"></rect><rect x="430.45239" y="402.6914" width="6.33" height=".25" style="fill:#e0e0e0;"></rect><rect x="316.21239" y="408.9214" width="53.89" height=".25" style="fill:#e0e0e0;"></rect></g><g><path d="M406.706,175.2748c2.53469-1.1945,4.83169-3.4927,5.30789-6.2635,.4762-2.771-1.48-5.7434-4.1853-5.5623,3.1465,.6659,6.6161-2.313,7.2137-5.6682,.5981-3.3548-1.2196-6.6183-3.9016-8.3133-2.682-1.6951-6.0703-2.0353-9.34869-1.753,3.35309-1.8368,5.14419-6.3928,3.85409-9.8045-1.29-3.4117-5.4618-5.152-8.9774-3.7451,1.45031-8.415-.6578-17.5863-7.0048-22.3744-6.3474-4.7881-17.1625-3.4839-21.87189,3.8312-1.77191-5.0277-8.94871-5.943-13.51041-2.6547-4.5619,3.2882-6.6228,9.308-6.7142,14.8078-2.1648-2.5494-6.9065-.6168-8.52639,2.6362-1.61971,3.2532,.28579,6.6282,.85759,10.0541,0,0-3.5502,2.2666-2.2187,7.7015s11.2563,21.9066,25.2199,29.132c6.8375,3.5381,14.3545,1.2433,14.3545,1.2433,5.0531,4.9538,13.0041,6.9524,18.2014,6.0479,1.562-.2719,3.1691-.6351,4.5178-1.5721,1.3491-.9366,2.3839-2.5845,2.1651-4.1552-.1337-.9598-.87-1.7421-1.7394-2.0157,2.15081-.2523,4.3019-.6275,6.30681-1.572Z" style="fill:#ebebeb;"></path><path d="M376.92669,176.6792c.3884,.3155-2.23769-3.6414-2.74369-5.7211-.47961-1.9707-.024-3.626-.66681-5.5497-.6428-1.9237-2.3447-3.7147-4.3691-3.589,1.53691-2.2313,2.3325-5.2328,1.1392-7.6653-1.1932-2.4325-4.8856-3.5311-6.7427-1.5583,.7866-3.1563,1.5698-6.507,.5945-9.6102s-4.43409-5.6653-7.4549-4.4589c.5006-2.6974-.1659-5.6448-1.9854-7.6982-1.8194-2.0535-4.8144-3.0742-7.4509-2.3155-2.2363,.6435-3.7263,2.5767-4.7703,4.6563-1.0441,2.0797-1.8933,5.6036-2.08759,7.9225,0,0,2.385-12.762,9.08819-11.8242,0,0,8.3601,.4834,5.9971,10.7667,0,0,4.524-3.7665,7.8934,2.3748,1.8942,3.4525-2.2309,14.4121-2.2309,14.4121,0,0,3.6218-7.7189,8.1827-3.034,0,0,3.0758,3.2325-2.072,9.3554,0,0,3.3811-1.7052,4.9043,1.2588,1.5093,2.937,.644,8.9224,4.7749,12.2778Z" style="fill:#e0e0e0;"></path><path d="M377.25429,178.5419c1.3691-.6187,10.26,1.5766,16.9525-.8637,1.5385-.561,3.57421-1.5695,4.8719-2.5683,1.7281-1.3301,3.05731-3.4343,3.2576-5.0596,.3585-2.9084-2.5867-5.1868-5.4157-5.9508,1.8215-.6698,3.5591-1.7122,4.722-3.266s1.6718-3.6733,.999-5.4937c-.8957-2.4237-3.5287-3.7148-6.022-4.393-2.8823-.784-5.8993-1.0703-8.87759-.8426,1.90769-2.0916,1.86809-6.4231,.08139-8.619s-4.6513-3.2559-7.4613-3.5993c-6.3872-.7806-11.25809,3.9682-15.3874,8.9032,0,0,8.2931-13.9587,20.1635-8.4422,2.5525,1.1863,3.7447,2.4999,4.5767,5.1888,.4473,1.4456,.3948,4.4722-.5875,5.6913,0,0,13.1198-1.0558,14.80961,6.1745,1.21859,5.2141-4.97251,8.4727-4.97251,8.4727,0,0,4.9928,2.1217,4.7387,6.576-.1866,3.2699-4.5374,6.8329-8.52819,8.1349-5.52151,1.8014-17.92071-.0432-17.92071-.0432Z" style="fill:#e0e0e0;"></path><path d="M390.56259,148.0576c3.1703-5.8034,3.2235-9.6081,2.3275-11.8559-.8959-2.2477-3.3174-3.7893-5.73309-3.6498,1.13549-2.9212,.976-6.3856-.69161-9.0393-1.6676-2.6537-4.896-4.3305-7.9976-3.8799-3.1016,.4507-5.805,3.1745-5.9623,6.3047-1.35549-2.6724-3.1828-5.213-5.7571-6.7467s-6.0038-1.8778-8.5358-.2753c-2.0071,1.2704-2.7955,3.115-3.0232,5.4794-.2276,2.3644,.0203,5.2364,1.0813,7.3616,0,0-2.3013-12.7015,5.3017-13.0838,7.6029-.3823,12.0692,10.4398,11.8717,10.2981-.1623-.1163-.278-7.2233,5.0558-8.229,2.8469-.5368,5.7762,.9177,7.2207,3.4289,1.2392,2.1544,1.96441,5.4876-.1732,10.1571,0,0,3.1647-2.2901,6.016,.9774,2.8514,3.2675-1.0008,12.7525-1.0008,12.7525Z" style="fill:#e0e0e0;"></path></g><g><path d="M140.6463,254.374c-.4971-3.0188-2.2243-6.1178-4.992-7.4459-2.7679-1.328-6.474-.1617-7.0922,2.7336,1.6396-3.1056-.4522-7.6395-3.7973-9.2696-3.3446-1.6305-7.315-.6967-9.8966,1.6135-2.5815,2.3102-3.9512,5.7669-4.6343,9.2943-.9271-4.0703-5.1767-7.3127-9.1453-6.9772-3.9683,.3354-7.0426,4.1966-6.6155,8.3092-8.4041-4.0375-18.6659-4.5639-25.5908,.6711-6.9252,5.2355-8.7869,16.9833-2.5116,24.1148-5.8097,.3586-8.9153,7.6223-6.8249,13.3956,2.0902,5.7734,7.7965,9.7365,13.5451,11.4759-3.3243,1.5117-2.7115,7.0689,.2209,9.7422,2.9326,2.6731,7.0464,1.6802,10.8152,2.1035,0,0,1.3195,4.4057,7.4252,4.6312,6.1056,.2256,26.3699-5.2759,38.1304-17.7816,5.7587-6.1237,5.5948-14.7039,5.5948-14.7039,6.7124-3.8265,11.187-11.5796,11.79-17.3082,.1812-1.7216,.2799-3.5179-.301-5.2143-.5806-1.6968-2.0021-3.2759-3.717-3.5154-1.0479-.1463-2.0895,.3932-2.6366,1.2245,.3776-2.3342,.6264-4.7054,.2335-7.0933Z" style="fill:#ebebeb;"></path><path d="M133.2233,286.0682c.4474-.3136-4.4928,1.2621-6.8282,1.1721-2.213-.0852-3.8152-1.0582-6.0276-.958-2.2124,.1003-4.6018,1.3525-5.0746,3.5161-1.8842-2.2807-4.7987-4.0131-7.7099-3.4868-2.9111,.5264-5.1682,4.0759-3.6512,6.6157-3.0798-1.7691-6.3647-3.5929-9.9151-3.4958s-7.2747,2.9639-6.9103,6.4969c-2.6833-1.3318-5.9778-1.5124-8.678-.2152s-4.667,4.1376-4.658,7.1332c.0076,2.5409,1.5926,4.6833,3.4648,6.4012,1.8721,1.7179,5.3192,3.6626,7.6965,4.5596,0,0-12.6902-6.3181-9.7024-13.0776,0,0,3.0056-8.6354,13.0992-3.0811,0,0-2.6039-5.8767,4.8526-7.5802,4.1918-.9577,14.4692,6.6492,14.4692,6.6492,0,0-7.0243-6.1101-.7415-9.5001,0,0,4.3139-2.2644,9.2061,4.9714,0,0-.7806-4.0605,2.7873-4.7745,3.5355-.7075,9.5629,1.9897,14.3211-1.3461Z" style="fill:#e0e0e0;"></path><path d="M135.2774,286.2807c-.2407-1.6227,4.7214-10.304,4.1583-18.0617-.1295-1.7834-.5803-4.2226-1.2416-5.8839-.8805-2.2123-2.6932-4.237-4.3402-4.933-2.9474-1.2455-6.2202,1.1668-7.8678,3.9096-.1592-2.1131-.7348-4.2495-2.0192-5.935-1.2843-1.6856-3.3581-2.8533-5.471-2.6906-2.813,.2165-4.9556,2.5959-6.4129,5.0117-1.6846,2.7928-2.8868,5.8757-3.5375,9.0716-1.6267-2.6284-6.1875-3.8811-9.0275-2.6608-2.8399,1.2203-4.8091,3.912-6.0094,6.7605-2.7283,6.4746,.8035,13.0091,4.7525,18.8202,0,0-12.1816-12.8803-2.8412-23.6984,2.0084-2.3262,3.7442-3.1858,6.8167-3.2561,1.6519-.0378,4.8148,.9217,5.8016,2.3175,0,0,2.8113-14.094,10.9096-13.7083,5.84,.2782,7.4123,7.7539,7.4123,7.7539,0,0,3.7201-4.6095,8.3221-3.0118,3.3784,1.173,5.8202,6.8069,5.9952,11.3871,.242,6.337-5.4,18.8075-5.4,18.8075Z" style="fill:#e0e0e0;"></path><path d="M107.2388,263.1957c-5.1474-5.0636-9.1273-6.2563-11.7556-5.9869-2.6283,.2693-4.9708,2.3517-5.5461,4.9304-2.7286-2.0654-6.4146-2.933-9.6998-1.9746s-6.0109,3.8479-6.4644,7.2399c-.4534,3.3919,1.5994,7.045,4.8398,8.1455-3.2117,.6251-6.4258,1.785-8.8057,4.0302-2.3799,2.2453-3.7661,5.7442-2.8396,8.8822,.7345,2.4874,2.4361,3.8666,4.8512,4.8122,2.4151,.9455,5.5054,1.5434,8.0543,1.064,0,0-14.0268-1.3783-12.1566-9.4772,1.8703-8.0989,14.5702-9.5559,14.3624-9.3907-.1707,.1356-7.6691-1.8664-7.1315-7.7686,.2869-3.1502,2.6897-5.7919,5.7586-6.5586,2.6328-.6578,6.35-.4234,10.6153,3.2168,0,0-1.4594-4.0079,2.824-6.0261,4.2835-2.0182,13.0937,4.8615,13.0937,4.8615Z" style="fill:#e0e0e0;"></path></g><g><path d="M447.48379,363.8744c2.1037-2.2214,3.5274-5.4711,2.9115-8.4785-.6161-3.0075-3.7861-5.254-6.4659-3.9955,3.4649-.5722,5.8109-4.9799,5.0864-8.6298-.7239-3.6498-3.8686-6.2473-7.2697-6.9063-3.401-.6591-6.9824,.3404-10.2048,1.9294,2.6811-3.1998,2.69371-8.545,.02671-11.5029-2.66691-2.9577-7.60121-3.0712-10.61831-.2441-1.8665-9.135-7.65269-17.6262-16.0098-19.9757-8.3574-2.3496-18.8397,3.2718-20.7248,12.5822-3.7988-4.4102-11.4619-2.4912-14.7959,2.6649-3.33419,5.156-3.0399,12.0973-.9489,17.7275-3.21429-1.7333-7.2697,2.1152-7.6255,6.0673-.3556,3.952,2.9228,6.628,4.8648,9.8856,0,0-2.7109,3.7152,.8016,8.7144,3.5126,4.9992,20.1482,17.8116,37.2201,19.6157,8.3596,.8834,15.0941-4.4357,15.0941-4.4357,7.1067,3.032,15.9874,1.9074,20.91461-1.0765,1.48069-.8968,2.97109-1.9045,3.97079-3.393,1.0003-1.4884,1.3984-3.5755,.5521-5.0861-.5172-.9231-1.5767-1.4264-2.5696-1.3595,2.0874-1.1107,4.1263-2.3465,5.7905-4.1034Z" style="fill:#ebebeb;"></path><path d="M417.75239,377.1284c.5203,.1667-3.722-2.8151-5.0626-4.7295-1.2703-1.814-1.4643-3.6785-2.882-5.3799s-3.86-2.8472-5.869-1.9154c.6771-2.8798,.2943-6.2487-1.8853-8.249-2.1796-2.0002-6.37149-1.6514-7.477,1.0926-.4533-3.5227-.9872-7.2417-3.2116-10.0107-2.2243-2.769-6.7597-4.0016-9.3531-1.5748-.562-2.9425-2.4104-5.6756-5.0764-7.0417s-6.1175-1.2149-8.498,.6037c-2.019,1.5426-2.7668,4.1005-3.0029,6.6304-.236,2.5299,.2996,6.4513,1.0228,8.8871,0,0-2.642-13.9276,4.5483-15.6357,0,0,8.6952-2.8281,10.3753,8.5696,0,0,3.1057-5.6275,8.9716-.719,3.29751,2.7594,3.454,15.5447,3.454,15.5447,0,0,.6186-9.2893,7.1179-6.3354,0,0,4.4122,2.0664,1.60761,10.3384,0,0,2.76189-3.0771,5.48819-.6673,2.7014,2.388,4.1982,8.8195,9.7322,10.5919Z" style="fill:#e0e0e0;"></path><path d="M418.82539,378.8929c1.1468-1.173,11.06161-2.4707,16.8997-7.6104,1.342-1.1816,3.0121-3.0157,3.9354-4.5469,1.22951-2.0391,1.7458-4.7072,1.3042-6.4399-.7904-3.1005-4.6908-4.2484-7.8716-3.902,1.5867-1.4046,2.9401-3.1549,3.50591-5.1971,.56579-2.0422,.24169-4.4-1.16551-5.9844-1.87349-2.1095-5.0643-2.3771-7.8696-2.0768-3.24289,.3472-6.4253,1.2539-9.3641,2.6683,1.1097-2.885-.6507-7.2749-3.3399-8.7989-2.6893-1.5239-6.02389-1.4645-9.0184-.698-6.8064,1.7424-9.875,8.5068-12.1152,15.1661,0,0,2.892-17.4909,17.1562-16.5938,3.0672,.1929,4.80151,1.0556,6.71551,3.4601,1.029,1.2928,2.17749,4.3921,1.66249,6.0221,0,0,12.9252-6.2838,17.5151,.3992,3.31,4.8194-1.6931,10.5923-1.6931,10.5923,0,0,5.9208,.1754,7.4311,4.8068,1.1088,3.4-1.90159,8.7518-5.4437,11.6608-4.9007,4.0249-18.2445,7.0725-18.2445,7.0725Z" style="fill:#e0e0e0;"></path><path d="M420.25579,342.6019c.9201-7.1617-.5367-11.0526-2.3405-12.9831-1.8039-1.9304-4.879-2.5367-7.2807-1.4356-.0051-3.4221-1.543-6.8825-4.293-8.9194-2.7499-2.0369-6.6995-2.4604-9.6752-.7704s-4.6438,5.5341-3.5608,8.7803c-2.4399-2.1799-5.3073-4.0383-8.5347-4.576s-6.8523,.4741-8.7913,3.1096c-1.5369,2.0892-1.6064,4.2784-.899,6.7737,.70741,2.4952,2.1,5.318,4.0231,7.0582,0,0-7.3845-12.005,.1968-15.413,7.5812-3.408,16.42151,5.8257,16.1643,5.76-.2113-.0539-3.1512-7.2366,1.8747-10.3776,2.6824-1.6764,6.2394-1.3603,8.7059,.6203,2.1159,1.6991,4.1771,4.8014,3.8572,10.3997,0,0,2.3095-3.586,6.5072-1.3949s4.046,13.3682,4.046,13.3682Z" style="fill:#e0e0e0;"></path></g><polygon points="190.8586 106.9561 196.8119 110.3033 190.7815 113.5102 187.4337 119.4637 184.2271 113.433 178.2738 110.0853 184.3044 106.8789 187.6518 100.9253 190.8586 106.9561" style="fill:#ebebeb;"></polygon><polygon points="329.48679 185.5461 335.44 188.8933 329.40969 192.1002 326.06189 198.0537 322.85519 192.023 316.902 188.6753 322.93259 185.4689 326.28 179.5153 329.48679 185.5461" style="fill:#ebebeb;"></polygon><polygon points="221.60549 238.9752 227.55869 242.3223 221.52839 245.5293 218.18059 251.4828 214.97389 245.452 209.02069 242.1044 215.05129 238.898 218.39869 232.9443 221.60549 238.9752" style="fill:#ebebeb;"></polygon><polygon points="90.3692 176.5617 93.3792 178.2542 90.3302 179.8757 88.6374 182.886 87.016 179.8367 84.0059 178.1441 87.0551 176.5227 88.7477 173.5124 90.3692 176.5617" style="fill:#ebebeb;"></polygon><polygon points="416.52149 234.1962 419.53149 235.8886 416.48249 237.5101 414.78969 240.5204 413.16829 237.4711 410.15819 235.7785 413.20739 234.1571 414.9 231.1468 416.52149 234.1962" style="fill:#ebebeb;"></polygon><polygon points="324.59069 87.2903 327.60069 88.9828 324.55159 90.6043 322.85889 93.6146 321.23739 90.5652 318.22739 88.8727 321.27659 87.2513 322.96919 84.241 324.59069 87.2903" style="fill:#ebebeb;"></polygon></g><g id="freepik--Shadow--inject-20"><path d="M385.99739,438.9504c0,10.3631-65.9673,18.7642-147.3423,18.7642s-147.34229-8.4011-147.34229-18.7642,65.9674-18.7645,147.34229-18.7645,147.3423,8.4011,147.3423,18.7645Z" style="fill:#f5f5f5;"></path></g><g id="freepik--Flowers_2--inject-20"><g><path d="M387.944,385.5774c-.50451-2.5197-.06591-5.4672,1.71529-7.3315,1.7815-1.8643,5.0398-2.0467,6.384,.0454-2.20929-1.9545-1.9096-6.1377,.2358-8.4105,2.145-2.2731,5.5421-2.7164,8.2558-1.6663s4.815,3.3605,6.3977,5.9301c-.4783-3.4737,1.9-7.2817,5.1182-8.1947,3.218-.913,6.7788,1.2099,7.6625,4.5684,5.4075-5.6647,13.31571-9.1209,20.3099-7.06,6.9945,2.0611,11.94081,10.7413,9.1237,18.2063,4.6719-1.4407,9.26611,3.3468,9.33511,8.5036,.06919,5.1568-3.24021,9.9632-7.24211,13.0345,3.0606,.2024,4.2267,4.7513,2.7149,7.7216-1.5121,2.9701-5.0393,3.4096-7.8756,4.8596,0,0,.2692,3.8536-4.4621,5.8411-4.7313,1.9876-22.2874,3.6723-35.2375-2.6686-6.3412-3.1049-8.7563-9.8964-8.7563-9.8964-6.4096-1.017-12.2248-5.7832-14.3972-10.1063-.6528-1.2992-1.263-2.6817-1.3093-4.187-.0469-1.5056,.602-3.168,1.8787-3.8647,.7801-.4257,1.7586-.3106,2.435,.1805-.9888-1.7224-1.8873-3.512-2.28649-5.5051Z" style="fill:#00FF13;"></path><path d="M403.17449,408.284c-.44449-.1139,3.905-.3403,5.7136-1.1035,1.7138-.7231,2.6845-1.9628,4.4528-2.5399,1.7684-.5772,4.0174-.3016,5.0305,1.2585,.8045-2.351,2.5812-4.5765,5.0251-5.026,2.4438-.4495,5.2699,1.6707,4.8309,4.1164,1.8957-2.3034,3.9365-4.7106,6.7554-5.687,2.8189-.9763,6.5957,.1724,7.3568,3.0569,1.7139-1.8422,4.24941-2.9609,6.756-2.7421,2.5066,.2189,4.89441,1.8679,5.7755,4.2247,.7474,1.999,.137,4.1526-.825,6.0577-.9619,1.9051-3.0942,4.4555-4.6965,5.8652,0,0,8.0995-8.7276,3.74741-13.1539,0,0-4.92241-5.8951-11.20781,1.4625,0,0,.304-5.3903-6.0609-4.5183-3.5781,.4903-9.3994,9.5154-9.3994,9.5154,0,0,3.7086-6.8843-2.234-7.6856,0,0-4.0615-.5005-5.7608,6.6364,0,0-.5904-3.4224-3.606-2.9257-2.9882,.4922-6.9252,4.3989-11.6536,3.1883Z" style="opacity:.3;"></path><path d="M401.62329,409.06c-.292-1.3466-6.7655-6.6977-8.623-12.9613-.4271-1.4398-.796-3.4904-.7689-4.992,.0361-1.9996,.8603-4.1282,1.9483-5.1635,1.9469-1.8526,5.2342-.9273,7.3422,.7397-.5014-1.7079-.6825-3.5574-.173-5.2628,.5096-1.7054,1.79311-3.238,3.5018-3.7366,2.2748-.6639,4.6641,.5707,6.5256,2.0372,2.1519,1.6953,4.01071,3.7616,5.46971,6.0802,.499-2.5479,3.71179-4.8846,6.30549-4.7676,2.5936,.1169,4.9392,1.6484,6.727,3.5311,4.0637,4.2792,3.2256,10.4616,1.8452,16.1992,0,0,5.7542-13.7339-4.7936-19.4661-2.268-1.2327-3.887-1.3935-6.3224-.5378-1.3094,.4601-3.5105,2.1518-3.8721,3.5414,0,0-6.3881-10.2425-12.6379-7.5383-4.507,1.9501-3.5261,8.2912-3.5261,8.2912,0,0-4.2902-2.5195-7.433,.1006-2.3072,1.9234-2.5558,7.0749-1.3353,10.7262,1.68871,5.0518,9.82,13.1792,9.82,13.1792Z" style="opacity:.3;"></path><path d="M416.81329,382.605c2.5439-5.5055,5.3179-7.6227,7.4632-8.1904,2.1454-.5676,4.6037,.3744,5.8204,2.2303,1.532-2.4321,4.1714-4.2068,7.0373-4.4277,2.8659-.2208,5.8646,1.2418,7.2266,3.773,1.3621,2.5311,.832,6.0106-1.3882,7.8362,2.7092-.461,5.5789-.5025,8.1149,.5564s4.6628,3.3976,4.865,6.1383c.1604,2.1725-.7679,3.7609-2.38549,5.22-1.61761,1.4591-3.86891,2.8452-6.01421,3.2243,0,0,10.6146-5.242,6.7436-11.0522-3.8711-5.8101-14.2835-3.1897-14.0712-3.1215,.1743,.056,5.4735-3.7405,3.3011-8.2195-1.1595-2.3906-3.831-3.7542-6.4701-3.4468-2.264,.2637-5.1158,1.55-7.3884,5.6753,0,0-.0414-3.5824-4.0061-3.8984-3.9646-.316-8.8484,7.7027-8.8484,7.7027Z" style="opacity:.3;"></path><g style="opacity:.3;"><path d="M387.944,385.5774c-.50451-2.5197-.06591-5.4672,1.71529-7.3315,1.7815-1.8643,5.0398-2.0467,6.384,.0454-2.20929-1.9545-1.9096-6.1377,.2358-8.4105,2.145-2.2731,5.5421-2.7164,8.2558-1.6663s4.815,3.3605,6.3977,5.9301c-.4783-3.4737,1.9-7.2817,5.1182-8.1947,3.218-.913,6.7788,1.2099,7.6625,4.5684,5.4075-5.6647,13.31571-9.1209,20.3099-7.06,6.9945,2.0611,11.94081,10.7413,9.1237,18.2063,4.6719-1.4407,9.26611,3.3468,9.33511,8.5036,.06919,5.1568-3.24021,9.9632-7.24211,13.0345,3.0606,.2024,4.2267,4.7513,2.7149,7.7216-1.5121,2.9701-5.0393,3.4096-7.8756,4.8596,0,0,.2692,3.8536-4.4621,5.8411-4.7313,1.9876-22.2874,3.6723-35.2375-2.6686-6.3412-3.1049-8.7563-9.8964-8.7563-9.8964-6.4096-1.017-12.2248-5.7832-14.3972-10.1063-.6528-1.2992-1.263-2.6817-1.3093-4.187-.0469-1.5056,.602-3.168,1.8787-3.8647,.7801-.4257,1.7586-.3106,2.435,.1805-.9888-1.7224-1.8873-3.512-2.28649-5.5051Z"></path></g></g><g><path d="M267.07119,368.5038c-.5045-2.5197-.0659-5.4672,1.7153-7.3315,1.78151-1.8643,5.0398-2.0467,6.384,.0454-2.2092-1.9545-1.9096-6.1377,.2358-8.4105,2.145-2.2731,5.5421-2.7164,8.2558-1.6663s4.815,3.3605,6.3977,5.9301c-.4783-3.4737,1.9-7.2817,5.11821-8.1947,3.218-.913,6.77879,1.2099,7.66249,4.5684,5.40751-5.6646,13.3157-9.1209,20.31-7.06,6.9944,2.0611,11.9407,10.7413,9.1236,18.2063,4.67191-1.4407,9.2661,3.3468,9.3351,8.5036,.0692,5.1568-3.2401,9.9632-7.2421,13.0345,3.0607,.2024,4.2267,4.7513,2.71491,7.7216-1.51211,2.9701-5.03931,3.4096-7.87561,4.8596,0,0,.2693,3.8536-4.4621,5.8411-4.73129,1.9876-22.2874,3.6723-35.2375-2.6686-6.3412-3.1049-8.7563-9.8964-8.7563-9.8964-6.4096-1.017-12.2248-5.7832-14.3972-10.1063-.6528-1.2992-1.263-2.6816-1.30929-4.187-.04691-1.5056,.602-3.168,1.87869-3.8647,.7801-.4257,1.7586-.3105,2.435,.1806-.9888-1.7225-1.8873-3.5121-2.2865-5.5052Z" style="fill:#00FF13;"></path><path d="M282.30169,391.2104c-.4445-.1139,3.905-.3403,5.7136-1.1035,1.7138-.7231,2.6845-1.9628,4.4528-2.5399,1.7684-.5772,4.0175-.3016,5.0305,1.2585,.8045-2.351,2.5812-4.5765,5.0251-5.026,2.4438-.4495,5.27,1.6707,4.8309,4.1164,1.8957-2.3034,3.9365-4.7106,6.75541-5.687,2.81889-.9763,6.59569,.1724,7.35679,3.0569,1.7139-1.8422,4.2494-2.9609,6.756-2.7421,2.5066,.2189,4.8944,1.8679,5.7755,4.2247,.7474,1.999,.137,4.1526-.825,6.0577-.9619,1.9051-3.0942,4.4555-4.6965,5.8652,0,0,8.0996-8.7276,3.7474-13.1539,0,0-4.9224-5.8951-11.2078,1.4625,0,0,.304-5.3903-6.0609-4.5183-3.5781,.4903-9.3994,9.5154-9.3994,9.5154,0,0,3.7086-6.8843-2.234-7.6856,0,0-4.0615-.5005-5.7608,6.6364,0,0-.5904-3.4224-3.606-2.9257-2.9882,.4922-6.9252,4.3989-11.6536,3.1883Z" style="opacity:.3;"></path><path d="M280.75049,391.9864c-.292-1.3466-6.76549-6.6977-8.623-12.9613-.4271-1.4398-.796-3.4904-.7689-4.992,.0361-1.9996,.8603-4.1282,1.9483-5.1635,1.9469-1.8526,5.2342-.9273,7.3422,.7397-.5014-1.7079-.6825-3.5574-.1729-5.2628,.5095-1.7054,1.793-3.238,3.5017-3.7366,2.2748-.6639,4.66411,.5707,6.5256,2.0372,2.1519,1.6953,4.0107,3.7616,5.4697,6.0802,.499-2.5479,3.71181-4.8845,6.3055-4.7676,2.5936,.1169,4.9392,1.6484,6.727,3.5311,4.0637,4.2792,3.2256,10.4616,1.8452,16.1992,0,0,5.7542-13.7339-4.7936-19.4661-2.268-1.2326-3.887-1.3935-6.3224-.5378-1.3094,.4601-3.5105,2.1518-3.8721,3.5414,0,0-6.3881-10.2425-12.6379-7.5383-4.507,1.9501-3.5261,8.2912-3.5261,8.2912,0,0-4.2902-2.5195-7.433,.1006-2.3072,1.9234-2.55579,7.0749-1.3353,10.7262,1.6887,5.0518,9.82,13.1792,9.82,13.1792Z" style="opacity:.3;"></path><path d="M295.94049,365.5314c2.5439-5.5055,5.3179-7.6227,7.4632-8.1904,2.1454-.5676,4.6037,.3744,5.8204,2.2303,1.532-2.4321,4.1714-4.2068,7.0373-4.4277,2.8659-.2208,5.86461,1.2418,7.22661,3.773,1.36209,2.5311,.832,6.0106-1.38821,7.8362,2.70921-.461,5.5789-.5025,8.1149,.5564s4.6628,3.3976,4.8651,6.1383c.1603,2.1725-.768,3.7609-2.3856,5.22s-3.8689,2.8452-6.0141,3.2243c0,0,10.6145-5.242,6.7435-11.0522-3.8711-5.8101-14.2835-3.1897-14.0712-3.1215,.1744,.056,5.4735-3.7405,3.3011-8.2195-1.15949-2.3906-3.831-3.7542-6.4701-3.4468-2.264,.2637-5.1158,1.55-7.38839,5.6753,0,0-.04141-3.5824-4.006-3.8984-3.96471-.316-8.84851,7.7027-8.84851,7.7027Z" style="opacity:.3;"></path><g style="opacity:.3;"><path d="M267.07119,368.5038c-.5045-2.5197-.0659-5.4672,1.7153-7.3315,1.78151-1.8643,5.0398-2.0467,6.384,.0454-2.2092-1.9545-1.9096-6.1377,.2358-8.4105,2.145-2.2731,5.5421-2.7164,8.2558-1.6663s4.815,3.3605,6.3977,5.9301c-.4783-3.4737,1.9-7.2817,5.11821-8.1947,3.218-.913,6.77879,1.2099,7.66249,4.5684,5.40751-5.6646,13.3157-9.1209,20.31-7.06,6.9944,2.0611,11.9407,10.7413,9.1236,18.2063,4.67191-1.4407,9.2661,3.3468,9.3351,8.5036,.0692,5.1568-3.2401,9.9632-7.2421,13.0345,3.0607,.2024,4.2267,4.7513,2.71491,7.7216-1.51211,2.9701-5.03931,3.4096-7.87561,4.8596,0,0,.2693,3.8536-4.4621,5.8411-4.73129,1.9876-22.2874,3.6723-35.2375-2.6686-6.3412-3.1049-8.7563-9.8964-8.7563-9.8964-6.4096-1.017-12.2248-5.7832-14.3972-10.1063-.6528-1.2992-1.263-2.6816-1.30929-4.187-.04691-1.5056,.602-3.168,1.87869-3.8647,.7801-.4257,1.7586-.3105,2.435,.1806-.9888-1.7225-1.8873-3.5121-2.2865-5.5052Z"></path></g></g><g><path d="M34.7473,376.0647c-.5044-2.5198-.0659-5.4673,1.7154-7.3316,1.7814-1.8643,5.0397-2.0466,6.384,.0454-2.2093-1.9544-1.9097-6.1377,.2357-8.4105,2.145-2.273,5.5421-2.7164,8.2558-1.6663s4.815,3.3605,6.3977,5.9301c-.4783-3.4737,1.9-7.2817,5.1182-8.1947,3.218-.913,6.7789,1.2099,7.6625,4.5685,5.4075-5.6647,13.3158-9.121,20.31-7.0601,6.9945,2.0611,11.9407,10.7413,9.1236,18.2063,4.672-1.4407,9.2662,3.3468,9.3352,8.5036,.0691,5.1569-3.2402,9.9632-7.2422,13.0345,3.0607,.2024,4.2268,4.7513,2.7149,7.7216-1.512,2.9702-5.0393,3.4096-7.8756,4.8597,0,0,.2693,3.8535-4.4621,5.841-4.7313,1.9876-22.2874,3.6724-35.2375-2.6686-6.3412-3.1049-8.7563-9.8964-8.7563-9.8964-6.4096-1.017-12.2247-5.7832-14.3971-10.1063-.6529-1.2992-1.263-2.6816-1.3094-4.187-.0468-1.5056,.602-3.168,1.8787-3.8647,.7801-.4257,1.7586-.3105,2.435,.1806-.9888-1.7224-1.8873-3.5121-2.2865-5.5051Z" style="fill:#00FF13;"></path><path d="M49.9778,398.7712c-.4445-.1138,3.905-.3403,5.7136-1.1034,1.7138-.7232,2.6845-1.9628,4.4528-2.54,1.7684-.5772,4.0175-.3016,5.0305,1.2585,.8045-2.3509,2.5813-4.5765,5.0251-5.026s5.27,1.6707,4.8309,4.1165c1.8957-2.3035,3.9365-4.7106,6.7554-5.687,2.819-.9764,6.5957,.1723,7.3568,3.0568,1.7139-1.8422,4.2494-2.9609,6.756-2.742,2.5066,.2188,4.8944,1.8678,5.7755,4.2246,.7474,1.9991,.137,4.1526-.8249,6.0578-.9619,1.9051-3.0943,4.4554-4.6966,5.8652,0,0,8.0996-8.7277,3.7474-13.154,0,0-4.9223-5.8951-11.2077,1.4625,0,0,.3039-5.3903-6.061-4.5182-3.5781,.4902-9.3994,9.5153-9.3994,9.5153,0,0,3.7086-6.8843-2.234-7.6856,0,0-4.0615-.5005-5.7607,6.6364,0,0-.5905-3.4224-3.6061-2.9257-2.9882,.4923-6.9252,4.3989-11.6536,3.1883Z" style="opacity:.3;"></path><path d="M48.4266,399.5472c-.292-1.3466-6.7654-6.6977-8.623-12.9612-.427-1.4399-.7959-3.4905-.7689-4.9921,.0361-1.9996,.8603-4.1282,1.9483-5.1635,1.9469-1.8526,5.2342-.9273,7.3422,.7397-.5014-1.7078-.6825-3.5574-.1729-5.2628s1.7931-3.2379,3.5017-3.7366c2.2749-.6638,4.6642,.5708,6.5256,2.0372,2.1519,1.6953,4.0107,3.7616,5.4697,6.0802,.499-2.5479,3.7118-4.8845,6.3055-4.7676,2.5936,.1169,4.9392,1.6484,6.727,3.5311,4.0637,4.2793,3.2256,10.4616,1.8452,16.1993,0,0,5.7542-13.734-4.7935-19.4662-2.2681-1.2326-3.8871-1.3935-6.3225-.5378-1.3094,.4601-3.5105,2.1519-3.8721,3.5414,0,0-6.3881-10.2425-12.6379-7.5383-4.507,1.9501-3.5261,8.2912-3.5261,8.2912,0,0-4.2902-2.5195-7.433,.1006-2.3072,1.9235-2.5558,7.075-1.3353,10.7262,1.6887,5.0519,9.82,13.1792,9.82,13.1792Z" style="opacity:.3;"></path><path d="M63.6166,373.0922c2.5439-5.5054,5.3179-7.6227,7.4633-8.1903,2.1453-.5677,4.6036,.3743,5.8203,2.2303,1.532-2.4322,4.1714-4.2069,7.0373-4.4277,2.8659-.2209,5.8646,1.2417,7.2267,3.7729,1.362,2.5312,.8319,6.0106-1.3883,7.8362,2.7092-.461,5.579-.5024,8.115,.5564,2.536,1.0589,4.6627,3.3976,4.865,6.1383,.1603,2.1726-.768,3.7609-2.3856,5.22-1.6176,1.4592-3.8689,2.8453-6.0141,3.2243,0,0,10.6145-5.242,6.7435-11.0522-3.871-5.8101-14.2835-3.1897-14.0712-3.1215,.1744,.056,5.4735-3.7405,3.3011-8.2195-1.1595-2.3905-3.831-3.7542-6.4701-3.4468-2.264,.2637-5.1158,1.55-7.3884,5.6753,0,0-.0414-3.5823-4.006-3.8983-3.9647-.3161-8.8485,7.7026-8.8485,7.7026Z" style="opacity:.3;"></path><g style="opacity:.3;"><path d="M34.7473,376.0647c-.5044-2.5198-.0659-5.4673,1.7154-7.3316,1.7814-1.8643,5.0397-2.0466,6.384,.0454-2.2093-1.9544-1.9097-6.1377,.2357-8.4105,2.145-2.273,5.5421-2.7164,8.2558-1.6663s4.815,3.3605,6.3977,5.9301c-.4783-3.4737,1.9-7.2817,5.1182-8.1947,3.218-.913,6.7789,1.2099,7.6625,4.5685,5.4075-5.6647,13.3158-9.121,20.31-7.0601,6.9945,2.0611,11.9407,10.7413,9.1236,18.2063,4.672-1.4407,9.2662,3.3468,9.3352,8.5036,.0691,5.1569-3.2402,9.9632-7.2422,13.0345,3.0607,.2024,4.2268,4.7513,2.7149,7.7216-1.512,2.9702-5.0393,3.4096-7.8756,4.8597,0,0,.2693,3.8535-4.4621,5.841-4.7313,1.9876-22.2874,3.6724-35.2375-2.6686-6.3412-3.1049-8.7563-9.8964-8.7563-9.8964-6.4096-1.017-12.2247-5.7832-14.3971-10.1063-.6529-1.2992-1.263-2.6816-1.3094-4.187-.0468-1.5056,.602-3.168,1.8787-3.8647,.7801-.4257,1.7586-.3105,2.435,.1806-.9888-1.7224-1.8873-3.5121-2.2865-5.5051Z"></path></g></g></g><g id="freepik--Candles--inject-20"><g><g><ellipse cx="349.73902" cy="261.89808" rx="49.89033" ry="56.43253" style="fill:#00FF13; opacity:.1;"></ellipse><ellipse cx="350.56339" cy="266.0229" rx="28.1716" ry="31.8658" style="fill:#00FF13; opacity:.2;"></ellipse><rect x="324.59069" y="318.5053" width="54.9067" height="91.8968" style="fill:#00FF13;"></rect><g><path d="M350.15879,288.9968v13.0257c0,.9652,1.5,.9668,1.5,0v-13.0257c0-.9652-1.5-.9668-1.5,0h0Z" style="fill:#263238;"></path><path d="M350.74069,295.4977c-5.6583,.2226-11.3411-2.6795-14.4781-7.3937-3.1371-4.7142-3.6195-11.0769-1.2291-16.2102,2.6061-5.5964,8.3991-10.0959,8.2261-16.2669-.092-3.2823-1.9264-6.7006-.5559-9.6845,1.2585-2.74,4.7396-3.7346,7.7406-3.4422,7.7592,.756,13.5705,7.7089,16.3861,14.9786,2.0997,5.4212,3.9241,10.8865,3.7157,17.4769-.1837,5.8107-1.3002,19.1041-19.8054,20.542" style="fill:#00FF13;"></path><g style="opacity:.2;"><path d="M349.38789,295.4912c11.2299,.4871,13.1633-8.7769,13.8259-12.8509,.7516-4.6208,.1776-8.6145-.5656-12.5994-.9965-5.3437-3.8191-10.7071-8.3986-11.8676-1.7712-.4489-3.9525-.031-4.9675,1.7952-1.1053,1.9888-.3307,4.5427-.5876,6.8599-.4831,4.3565-4.3836,7.0535-6.478,10.7806-1.9211,3.4186-2.2369,7.935-.8046,11.5065s4.5629,6.074,7.976,6.3757"></path></g><g style="opacity:.2;"><path d="M350.36449,293.4924c.0947,.0017,.1912,.0035,.2841,.0035,2.7337,0,4.7475-.4824,5.76241-6.7263,.51669-3.1698,.17209-6.0947-.345-9.0237-.16251-.4664-.62851-.746-.961-.1161-1.14,2.5591-2.77981,4.5698-4.10261,6.1925-.7952,.9765-1.54739,1.8984-1.987,2.6784-.8362,1.4884-1.0006,3.6736-.3913,5.195,.44491,1.1079,1.2508,1.6948,1.7404,1.7967Z"></path></g></g><rect x="324.59069" y="318.5053" width="54.9067" height="91.8968" style="fill:#fff; opacity:.5;"></rect><path d="M346.16059,392.3528c-3.6438-24.4268-3.8479-49.3643-.6044-73.8475l-17.3464,5.447c-1.3537,23.1592-2.7023,46.4839,.3201,69.4849,.3323,2.5271,.8599,5.3033,2.8734,6.8662,2.0398,1.5833,4.8978,1.3785,7.4645,1.0973,2.5095-.275,5.351-.7438,6.7357-2.8548,1.1646-1.7747,.8702-4.0938,.5571-6.1931Z" style="fill:#fff; opacity:.2;"></path><path d="M368.81259,300.4036c1.39041-.0357,16.65741-1.6183,15.2992,15.021-1.2414,15.2075-.3966,18.931-3.8943,19.1935-4.0437,.3034-2.3827-8.495-4.7289-11.9612-2.9952-4.425-5.5633-1.9472-8.345,2.7817-2.7817,4.7288-4.2361,7.7767-9.702,6.4003-4.9794-1.254-1.0875-10.8126-10.6955-9.3678-9.8103,1.4753,.6477,30.506-7.6974,34.1222-8.345,3.6161-9.7358-4.4507-6.9541-17.2464,2.7816-12.7957-1.3909-15.021-4.7289-15.2992-3.338-.2781-.3005,5.9069-4.7288,4.8697-2.3063-.5402-1.3428-7.0072-1.669-13.4928-.36889-7.3348-1.37-14.6379,6.975-15.165,8.345-.5271,19.1727,.7003,40.8697,.144Z" style="fill:#00FF13;"></path><path d="M368.81259,300.4036c1.39041-.0357,16.65741-1.6183,15.2992,15.021-1.2414,15.2075-.3966,18.931-3.8943,19.1935-4.0437,.3034-2.3827-8.495-4.7289-11.9612-2.9952-4.425-5.5633-1.9472-8.345,2.7817-2.7817,4.7288-4.2361,7.7767-9.702,6.4003-4.9794-1.254-1.0875-10.8126-10.6955-9.3678-9.8103,1.4753,.6477,30.506-7.6974,34.1222-8.345,3.6161-9.7358-4.4507-6.9541-17.2464,2.7816-12.7957-1.3909-15.021-4.7289-15.2992-3.338-.2781-.3005,5.9069-4.7288,4.8697-2.3063-.5402-1.3428-7.0072-1.669-13.4928-.36889-7.3348-1.37-14.6379,6.975-15.165,8.345-.5271,19.1727,.7003,40.8697,.144Z" style="fill:#fff; opacity:.8;"></path><g style="opacity:.8;"><path d="M374.46109,304.5534c-15.698,2.2168-31.71809,2.1387-47.3938-.2311,0,0,6.34771,4.9745,23.6969,4.9745s23.6969-4.7434,23.6969-4.7434Z" style="fill:#fff;"></path></g><g style="opacity:.8;"><path d="M334.01529,347.4602c.0256-.0103,.05371-.0103,.0795-.0197,.0163-.0067,.0268-.0184,.0431-.0249l-.1226,.0446Z" style="fill:#fff;"></path></g><g style="opacity:.3;"><path d="M334.32339,347.2562v2.983c0,.3846,.1673,.7886,.4394,1.0607,.2601,.2601,.687,.456,1.0606,.4393,.388-.0174,.7903-.1448,1.0607-.4393,.2694-.2935,.4393-.6543,.4393-1.0607v-2.983c0-.3846-.1673-.7886-.4393-1.0606-.2602-.2602-.687-.4561-1.0607-.4394-.3879,.0174-.7903,.1448-1.0606,.4394-.2694,.2934-.4394,.6542-.4394,1.0606h0Z" style="fill:#fff;"></path></g><g style="opacity:.3;"><path d="M371.01389,340.992v56.0797c0,1.9304,3,1.9336,3,0v-56.0797c0-1.9304-3-1.9335-3,0h0Z" style="fill:#fff;"></path></g><circle cx="334.13789" cy="245.5232" r="3.9414" style="fill:#00FF13;"></circle></g><g><ellipse cx="260.78822" cy="122.5755" rx="51.61873" ry="58.3877" style="fill:#00FF13; opacity:.1;"></ellipse><ellipse cx="260.78822" cy="126.54363" rx="29.30892" ry="33.15228" style="fill:#00FF13; opacity:.2;"></ellipse><g><path d="M261.72729,152.4912v13.5516c0,.9652,1.5,.9668,1.5,0v-13.5516c0-.9652-1.5-.9668-1.5,0h0Z" style="fill:#263238;"></path><path d="M262.30239,159.2545c-5.8867,.2317-11.7989-2.7876-15.0626-7.6921-3.2637-4.9046-3.7656-11.5241-1.2787-16.8647,2.7113-5.8224,8.7382-10.5035,8.5582-16.9237-.0957-3.4148-2.0041-6.971-.57829-10.0754,1.30929-2.8507,4.93089-3.8854,8.05309-3.5812,8.0725,.7866,14.1184,8.0201,17.0477,15.5833,2.1844,5.6401,4.0825,11.326,3.8657,18.1825-.1911,6.0453-1.3528,19.8754-20.6051,21.3713" style="fill:#00FF13;"></path><g style="opacity:.2;"><path d="M260.89509,159.2478c11.6832,.5067,13.6947-9.1313,14.3841-13.3698,.7819-4.8073,.1847-8.9622-.5885-13.108-1.0368-5.5595-3.9733-11.1394-8.7376-12.3468-1.8428-.4669-4.11209-.0322-5.16809,1.8678-1.14991,2.069-.344,4.7261-.61131,7.1368-.5026,4.5324-4.56069,7.3383-6.7396,11.2158-1.9987,3.5567-2.3272,8.2554-.83709,11.9711,1.49009,3.7157,4.74719,6.3192,8.29809,6.6331"></path></g><g style="opacity:.2;"><path d="M261.911,157.1683c.09859,.0018,.19889,.0037,.29559,.0037,2.8442,0,4.9392-.5019,5.995-6.9979,.5376-3.2978,.1791-6.3407-.3588-9.3881-.1691-.4851-.6539-.776-.9999-.1207-1.186,2.6624-2.892,4.7542-4.2682,6.4425-.8273,1.0159-1.6099,1.9751-2.0672,2.7865-.8699,1.5485-1.041,3.8219-.4071,5.4048,.4629,1.1525,1.3013,1.7632,1.81061,1.8692Z"></path></g></g><path d="M306.656,399.88c-13.32291-9.0908-16.01371-26.3119-16.48421-43.5317V185.3998h-55.9273v182.0315c-1.59149,12.8007-6.1368,25.1692-13.24949,35.466-.89321,1.2931-1.84781,2.6036-2.22471,4.1731-.3771,1.5696,.0005,3.492,1.2785,4.3069,.75421,.4808,1.6716,.5004,2.5435,.5071,18.7695,.1439,37.5386,.2877,56.3079,.4317,8.4855,.0651,16.9713,.1301,25.45681,.1952,3.12229,.0239,7.037-.5403,8.00359-3.8014,1.103-3.722-2.6775-6.7644-5.70459-8.8299Z" style="fill:#00FF13;"></path><g style="opacity:.6;"><path d="M306.656,399.88c-13.32291-9.0908-16.01371-26.3119-16.48421-43.5317V185.3998h-55.9273v182.0315c-1.59149,12.8007-6.1368,25.1692-13.24949,35.466-.89321,1.2931-1.84781,2.6036-2.22471,4.1731-.3771,1.5696,.0005,3.492,1.2785,4.3069,.75421,.4808,1.6716,.5004,2.5435,.5071,18.7695,.1439,37.5386,.2877,56.3079,.4317,8.4855,.0651,16.9713,.1301,25.45681,.1952,3.12229,.0239,7.037-.5403,8.00359-3.8014,1.103-3.722-2.6775-6.7644-5.70459-8.8299Z" style="fill:#fff;"></path></g><path d="M245.97979,164.598c-1.4162-.0465-16.967-2.1074-15.5835,19.5605,1.2644,19.8034,.4039,24.6521,3.96671,24.9939,4.11869,.3951,2.42689-11.0623,4.81669-15.5759,3.0509-5.7623,5.6667-2.5356,8.5001,3.6223s4.3149,10.1269,9.8823,8.3345c5.072-1.6329,1.1078-14.0802,10.8943-12.1988,9.9927,1.9211-.6597,39.7252,7.8404,44.4342,8.50021,4.709,9.9168-5.7957,7.0835-22.4583-2.8334-16.6627,1.41671-19.5605,4.81671-19.9228,3.4-.3622,.30619,7.692,4.81669,6.3414,2.3492-.7035,1.3678-9.1248,1.7-17.5705,.3758-9.5514,1.3955-19.0616-7.1046-19.748-8.50009-.6864-19.529,.9119-41.6293,.1875Z" style="fill:#00FF13;"></path><path d="M245.97979,164.598c-1.4162-.0465-16.967-2.1074-15.5835,19.5605,1.2644,19.8034,.4039,24.6521,3.96671,24.9939,4.11869,.3951,2.42689-11.0623,4.81669-15.5759,3.0509-5.7623,5.6667-2.5356,8.5001,3.6223s4.3149,10.1269,9.8823,8.3345c5.072-1.6329,1.1078-14.0802,10.8943-12.1988,9.9927,1.9211-.6597,39.7252,7.8404,44.4342,8.50021,4.709,9.9168-5.7957,7.0835-22.4583-2.8334-16.6627,1.41671-19.5605,4.81671-19.9228,3.4-.3622,.30619,7.692,4.81669,6.3414,2.3492-.7035,1.3678-9.1248,1.7-17.5705,.3758-9.5514,1.3955-19.0616-7.1046-19.748-8.50009-.6864-19.529,.9119-41.6293,.1875Z" style="fill:#fff; opacity:.8;"></path><g style="opacity:.8;"><path d="M288.85429,170.2288c-16.3318,2.3062-32.9988,2.225-49.30729-.2405,0,0,6.604,5.1754,24.65359,5.1754s24.6537-4.9349,24.6537-4.9349Z" style="fill:#fff;"></path></g><path d="M240.82619,208.0939s13.6172,3.9855,14.9457,8.9674,0,135.9515,0,135.9515c0,0-16.6063-10.0754-16.2742-11.4039s1.3285-133.515,1.3285-133.515Z" style="fill:#fff; opacity:.2;"></path><g style="opacity:.3;"><path d="M280.71049,251.914v53.8011c0,1.9304,3,1.9336,3,0v-53.8011c0-1.9303-3-1.9335-3,0h0Z" style="fill:#fff;"></path></g><g style="opacity:.3;"><path d="M281.62239,316.2017v6.8392c0,.7846,.6899,1.5362,1.5,1.5,.8127-.0364,1.5-.6591,1.5-1.5v-6.8392c0-.7846-.69-1.5362-1.5-1.5-.8128,.0364-1.5,.6591-1.5,1.5h0Z" style="fill:#fff;"></path></g></g><g><ellipse cx="166.4871" cy="187.80882" rx="46.0055" ry="52.03838" style="fill:#00FF13; opacity:.1;"></ellipse><ellipse cx="167.28342" cy="189.31968" rx="27.21272" ry="30.78123" style="fill:#00FF13; opacity:.2;"></ellipse><g><path d="M166.5334,212.3494v12.5824c0,.96518,1.5,.96678,1.5,0v-12.5824c0-.96518-1.5-.96678-1.5,0h0Z" style="fill:#263238;"></path><path d="M167.121,218.6291c-5.4656,.215-10.955-2.5883-13.9853-7.1421-3.0303-4.5538-3.4963-10.6999-1.1873-15.6585,2.5174-5.406,8.1133-9.7523,7.9462-15.7133-.0889-3.1706-1.8608-6.4725-.537-9.3548,1.2157-2.6468,4.5783-3.6076,7.4772-3.3251,7.4951,.7303,13.1086,7.4465,15.8284,14.4688,2.0282,5.2367,3.7905,10.5159,3.5893,16.8821-.1775,5.6129-1.2561,18.4539-19.1315,19.8429" style="fill:#00FF13;"></path><g style="opacity:.2;"><path d="M165.8143,218.6227c10.8477,.4706,12.7153-8.4781,13.3554-12.4135,.726-4.4635,.1715-8.3212-.5464-12.1705-.9626-5.1619-3.6891-10.3427-8.1127-11.4638-1.7109-.4335-3.818-.0299-4.7985,1.7342-1.0676,1.921-.3194,4.3881-.5676,6.6264-.4666,4.2082-4.2344,6.8135-6.2575,10.4137-1.8557,3.3022-2.1608,7.665-.7773,11.1149,1.3836,3.4499,4.4077,5.8673,7.7046,6.1586"></path></g><g style="opacity:.2;"><path d="M166.7576,216.692c.0915,.0017,.1847,.0034,.2745,.0034,2.6407,0,4.5859-.466,5.5662-6.4974,.4992-3.0619,.1663-5.8872-.3331-8.7166-.1571-.4504-.6072-.7205-.9284-.1121-1.1012,2.472-2.6852,4.4142-3.963,5.9817-.768,.9433-1.4947,1.8339-1.9193,2.5872-.8077,1.4378-.9665,3.5486-.378,5.0183,.4298,1.0701,1.2082,1.6371,1.6811,1.7355Z"></path></g></g><g><polygon points="177.36859 412.28088 177.89722 222.79779 155.07703 222.79779 154.54846 412.28088 177.36859 412.28088" style="fill:#00FF13;"></polygon><polygon points="177.36859 412.28088 177.89722 222.79779 155.07703 222.79779 154.54846 412.28088 177.36859 412.28088" style="fill:#fff; opacity:.6;"></polygon></g><path d="M180.9951,244.5576c-.2164-5.6801-.4328-11.3602-.6494-17.0403-.0341-.8887,.0239-2.093-.2447-2.9409-.5104-1.6114-1.923-2.0554-3.2406-2.3553-3.2651-.7429-6.9998-.326-10.3734-.4117l-6.0112-.114c-1.9991-.0809-4.62-.1579-5.9585,1.1024-1.3009,1.2249-1.8504,2.8404-2.1026,4.6094-.4699,3.2959-.9126,6.8017,.4595,9.835,.4121,.9112,1.0026,1.7731,1.8438,2.3141,.8412,.5409,1.9633,.7111,2.8543,.2568,1.2019-.6131,1.6328-2.0699,2.2188-3.2852,.5859-1.2154,1.8549-2.4411,3.1106-1.9468,.7952,.313,1.1998,1.2062,1.3458,2.0483,.1459,.8422,.117,1.7226,.4136,2.5241,.4136,1.1169,1.4841,1.9616,2.6666,2.1041s2.4231-.4237,3.0902-1.4104c-.0199,2.0128-.0361,4.0548,.4837,5.9993,.5199,1.9446,1.6526,3.8135,3.4224,4.7721,1.7697,.9586,4.2202,.7742,5.5352-.7498,1.2127-1.4055,1.2066-3.4561,1.1359-5.3112Z" style="fill:#00FF13;"></path><g style="opacity:.8;"><path d="M180.9951,244.5576c-.2164-5.6801-.4328-11.3602-.6494-17.0403-.0341-.8887,.0239-2.093-.2447-2.9409-.5104-1.6114-1.923-2.0554-3.2406-2.3553-3.2651-.7429-6.9998-.326-10.3734-.4117l-6.0112-.114c-1.9991-.0809-4.62-.1579-5.9585,1.1024-1.3009,1.2249-1.8504,2.8404-2.1026,4.6094-.4699,3.2959-.9126,6.8017,.4595,9.835,.4121,.9112,1.0026,1.7731,1.8438,2.3141,.8412,.5409,1.9633,.7111,2.8543,.2568,1.2019-.6131,1.6328-2.0699,2.2188-3.2852,.5859-1.2154,1.8549-2.4411,3.1106-1.9468,.7952,.313,1.1998,1.2062,1.3458,2.0483,.1459,.8422,.117,1.7226,.4136,2.5241,.4136,1.1169,1.4841,1.9616,2.6666,2.1041s2.4231-.4237,3.0902-1.4104c-.0199,2.0128-.0361,4.0548,.4837,5.9993,.5199,1.9446,1.6526,3.8135,3.4224,4.7721,1.7697,.9586,4.2202,.7742,5.5352-.7498,1.2127-1.4055,1.2066-3.4561,1.1359-5.3112Z" style="fill:#fff;"></path></g></g><path d="M125.8235,407.4405c3.8761-.6465,279.8555,0,279.8555,0l-24.03191,10.4303H140.5527l-14.7292-10.4303Z" style="fill:#263238;"></path><g style="opacity:.8;"><path d="M177.8876,223.9222c-7.0247,.992-14.1936,.957-21.2084-.1034,0,0,2.8406,2.226,10.6042,2.226s10.6042-2.1226,10.6042-2.1226Z" style="fill:#fff;"></path></g></g></g><g id="freepik--Skull--inject-20"><g><g><g><path d="M221.27639,267.7459c-3.0456-1.1611-88.9366-35.854-132.24079,43.3043-43.3042,79.1582-1.3969,72.6393,3.2594,86.6084,4.6564,13.9691-14.9004,42.3729,17.6942,40.5104,0,0,2.3282,17.6942,27.9382,7.4502,0,0,19.0911,11.1752,26.0757-.9313,6.9845-12.1066,10.244-21.8849,20.9536-22.8162,10.7097-.9313,29.3351,12.5722,65.1891-7.4502,35.8541-20.0224,45.6324-118.2717-28.8694-146.6756Z" style="fill:#263238;"></path><path d="M221.25929,267.7459c-3.0457-1.1611-88.9366-35.854-132.24079,43.3043-43.3043,79.1582-1.397,72.6393,3.2594,86.6084s-14.9004,42.3729,17.6942,40.5104c0,0,2.3282,17.6942,27.9382,7.4502,0,0,19.0911,11.1752,26.0757-.9313,6.9845-12.1066,10.244-21.8849,20.9536-22.8162,10.7096-.9313,29.3351,12.5722,65.1891-7.4502,35.8541-20.0224,45.6324-118.2717-28.8694-146.6756Z" style="fill:#fff; opacity:.9;"></path><path d="M127.413,375.5278c-2.5051-.6453-19.8991,14.7466-14.3913,22.9195,5.5078,8.1728,12.7923,2.132,12.7923,2.132,0,0,3.1981,6.9292,12.4369,3.0204,9.2389-3.9087,.8884-25.0515-10.8379-28.0719Z" style="fill:#263238;"></path><path d="M191.9366,359.1981c-2.9084-6.1256-8.8567-10.6518-15.4494-12.0805l.0967,.0079c-11.9794-3.3991-21.2309,.1084-26.0941,6.036-4.8631,5.9276-6.01,14.4707-3.5845,21.7442,2.7403,8.2172,9.9623,14.8278,18.4307,16.6487,8.4687,1.821,17.8614-1.3053,23.408-7.9586,5.5465-6.6534,6.9079-16.573,3.1926-24.3977Z" style="fill:#263238;"></path><path d="M114.5343,348.7088c-2.0705-6.1256-6.3052-10.6517-10.9987-12.0804l.0688,.0079c-8.5284-3.3992-15.1147,.1084-18.577,6.0359-3.4621,5.9277-4.2786,14.4708-2.5519,21.7443,1.9509,8.2171,7.0924,14.8278,13.1212,16.6487,6.0291,1.821,12.7161-1.3054,16.6648-7.9586,3.9487-6.6534,4.9179-16.5731,2.2728-24.3978Z" style="fill:#263238;"></path><g style="opacity:.2;"><path d="M109.3943,412.917c-1.7533,1.4824-2.8158,3.6648-3.2725,5.915-.4565,2.2501-.3502,4.5782-.0747,6.8576,.5006,4.1426,1.555,8.2181,3.1266,12.0838-.0654-8.4313,1.021-16.463,.2206-24.8564Z"></path></g><g style="opacity:.2;"><path d="M137.8763,421.2324c-1.7533,1.4824-2.8158,3.6648-3.2725,5.915-.4565,2.2501-.3502,4.5782-.0747,6.8576,.5005,4.1426,1.555,8.2182,3.1266,12.0838-.0655-8.4313,1.021-16.463,.2206-24.8564Z"></path></g><g style="opacity:.2;"><path d="M138.3389,359.091c-1.3171-5.7732,.4918-12.163,4.6397-16.3891,4.148-4.2261,10.5029-6.154,16.2997-4.9448-5.3698,.3487-10.5839,2.7218-14.3738,6.5419-3.7898,3.82-6.1214,9.0529-6.4274,14.4252"></path></g><g style="opacity:.2;"><path d="M111.1447,331.8897c5.8095,1.1465,10.9099,5.3995,13.0819,10.9083,2.1721,5.5089,1.3466,12.0983-2.1171,16.9011,1.8669-5.0468,1.8214-10.7754-.1255-15.7919-1.9469-5.0165-5.7778-9.276-10.5605-11.7421"></path></g><g style="opacity:.2;"><path d="M181.6343,423.3572c9.7502-5.5236,21.2714-6.7162,32.0147-9.9033,10.74329-3.1871,21.82649-9.5672,25.00609-20.3127-.0897,7.7651-3.1045,15.4619-8.3126,21.2221-5.2082,5.7603-12.5632,9.5328-20.2801,10.402"></path></g><path d="M192.3272,260.428c-.9149-.0617,2.4641,13.2545,16.8761,15.5006,14.412,2.246,20.88971-4.3057,20.88971-4.3057,0,0-19.44981-9.9608-37.7658-11.1949Z" style="fill:#00FF13;"></path><g><path d="M266.64369,307.2542c-8.8071-16.7067-23.435-31.1399-45.3844-39.5082-2.2134-.8439-48.1758-19.3825-89.7532,.9193,4.1848,7.1655,11.8402,12.4664,19.9081,13.5139,8.0698,1.0477,16.2254-.4252,24.2301-1.9087-.5514,8.2767-.2196,17.5556,5.4582,23.4533,5.0904,5.2876,13.3429,6.2503,20.2713,4.0983s12.7793-6.9214,18.1326-11.9273c-.064,6.8437,4.9533,13.3864,11.4435,14.9223,6.4902,1.536,13.7868-2.0924,16.6422-8.2754,3.7643,5.1471,13.0674,6.6242,19.0516,4.7125Z" style="fill:#00FF13; opacity:.2;"></path><path d="M81.2115,337.9568c-.687-2.1112-1.528-4.1715-2.5093-6.1629-.8049,1.8323-1.5547,3.6079-2.2404,5.3173,1.7295,.4335,3.3956,.7594,4.7497,.8456Z" style="fill:#00FF13;"></path><path d="M86.2329,332.4224c1.6046-4.009,2.4439-8.3228,2.4596-12.641,.0069-1.9136-.2975-4.0555-1.4167-5.5007-2.1882,4.1023-4.1325,7.9585-5.8628,11.5965,1.3633,2.2324,3.2413,5.0485,4.8199,6.5452Z" style="fill:#00FF13;"></path><path d="M74.0204,343.6533c-.6947,2.0149-1.3075,3.9439-1.8265,5.7733,2.3136-.9233,5.0241-2.1431,6.6187-3.3144-1.5242-.9538-3.1375-1.7555-4.7922-2.4589Z" style="fill:#00FF13;"></path></g></g><g><path d="M239.63959,346.4504c-1.729-1.9608-4.4431-2.8671-7.0567-2.8151-2.6136,.0521-5.1423,.9702-7.4626,2.174-3.2307,1.6758-8.2051,4.4752-10.70529,6.8448,5.31119,2.4624,11.09039,3.9108,16.93529,4.2444,3.3932,.1937,7.3678-.2921,9.158-3.1809,1.3773-2.2219,.8603-5.3065-.8687-7.2672Z" style="fill:#00FF13;"></path><path d="M232.26949,368.5056c-.0527-1.9276-1.1617-3.7234-2.6666-4.9289-1.50489-1.2055-3.371-1.8804-5.25389-2.2951-2.62171-.5774-6.76191-1.3424-9.29771-1.1818,1.8446,3.9044,4.4334,7.4556,7.5862,10.4064,1.8303,1.7132,4.311,3.3162,6.6901,2.5259,1.8299-.6076,2.9947-2.599,2.9419-4.5265Z" style="fill:#00FF13;"></path><path d="M221.40159,329.8924c-1.9063-.2901-3.8705,.4825-5.3239,1.7495-1.4535,1.2671-2.4489,2.9838-3.1911,4.7633-1.03359,2.4775-2.5212,6.4162-2.8132,8.9403,4.1698-1.1224,8.1241-3.0399,11.58761-5.6189,2.01079-1.4972,4.02859-3.654,3.67309-6.1356-.2732-1.9087-2.0262-3.4084-3.9325-3.6986Z" style="fill:#00FF13;"></path></g><g><path d="M137.584,305.9872c-2.3715,1.0999-4.0124,3.4441-4.7059,5.9646-.6935,2.5204-.5325,5.2058-.0384,7.7727,.6877,3.5738,1.9566,9.1391,3.5172,12.21,3.8714-4.3915,6.9037-9.52,8.8859-15.0286,1.1509-3.198,1.8157-7.1466-.4446-9.6846-1.7384-1.9523-4.8427-2.3341-7.2142-1.2341Z" style="fill:#00FF13;"></path><path d="M156.3361,321.5876c-1.863-.4977-3.9,.0547-5.4838,1.1545-1.5838,1.0999-2.7616,2.6969-3.6946,4.3842-1.2993,2.3491-3.2103,6.1008-3.7776,8.5775,4.2678-.6579,8.4087-2.1297,12.1344-4.313,2.163-1.2675,4.4053-3.1897,4.3244-5.6953-.0621-1.9272-1.6399-3.6103-3.5028-4.1079Z" style="fill:#00FF13;"></path><path d="M116.5226,318.7623c-.8205,1.7451-.6384,3.8479,.1629,5.6017s2.164,3.1963,3.6589,4.4141c2.0812,1.6955,5.4341,4.242,7.7709,5.2398,.11-4.3168-.6036-8.6531-2.091-12.7071-.8635-2.3536-2.3572-4.9015-4.8374-5.2666-1.9076-.2809-3.844,.9731-4.6643,2.7181Z" style="fill:#00FF13;"></path></g><path d="M126.4014,401.5027c4.7862,6.0631,13.3785,2.4555,14.9242-4.4306,1.6499-6.6561-2.3863-13.1278-6.8091-17.8273,5.1691,4.3455,9.4872,11.0378,7.7785,18.0708-.864,3.4026-3.3674,6.5062-6.8077,7.5492-3.3217,1.0114-7.4102-.2545-9.0859-3.3621h0Z" style="fill:#00FF13;"></path><path d="M163.9853,337.6617c13.8648-4.7383,30.0926,2.2436,36.4118,15.4166,.8887,1.8394,1.6297,3.7502,2.107,5.7251-.6937-1.907-1.5178-3.7579-2.5393-5.4944-6.9287-12.5813-22.075-18.9994-35.9795-15.6473h0Z" style="fill:#00FF13;"></path><path d="M151.1149,380.976c6.7268,10.2838,21.3258,13.7149,31.5441,6.5669,3.3503-2.1999,6.1203-5.2617,7.9603-8.8422-1.479,3.8107-4.208,7.0905-7.5241,9.4761-10.3067,7.7341-25.9526,4.1268-31.9803-7.2008h0Z" style="fill:#00FF13;"></path><g style="opacity:.5;"><path d="M240.02279,303.4423c-1.5639-4.486-4.812-8.1822-8.3001-11.4074-15.187-14.0421-36.5775-21.1145-57.1419-18.8929-5.4958,.1128-13.0501,1.2357-19.5231,4.872-6.4731,3.6363-10.4471,12.7406-6.0804,18.7453,2.5822,3.5508,7.1239,4.9652,11.3475,6.1646,18.625,5.2894,37.2503,10.5789,55.8751,15.8683,7.4022,2.1021,16.5778,3.7504,21.76411-1.9341,3.20209-3.5096,3.62269-8.9298,2.05879-13.4158Z" style="fill:#fff;"></path></g><g style="opacity:.7;"><path d="M148.7806,348.4375c9.2583-5.4339,20.5996-6.5734,30.7677-3.1537,1.834,.6168,2.6209-2.2796,.7975-2.8928-10.8966-3.6647-23.171-2.3593-33.0793,3.4561-1.6641,.9767-.1561,3.5707,1.5141,2.5904h0Z" style="fill:#fff;"></path></g><g style="opacity:.7;"><path d="M188.363,350.4456l.1955,.0992c.1721,.1096,.358,.1689,.5577,.178,.1993,.0446,.3987,.0357,.5981-.0268,.1952-.0464,.3652-.1359,.5101-.2685,.1633-.1057,.2921-.246,.3863-.4208l.1513-.3584c.0714-.2658,.0714-.5316,0-.7975l-.1513-.3583c-.1333-.2254-.3127-.4048-.5381-.5381l-.1954-.0992c-.1722-.1096-.3581-.1689-.5577-.178-.1994-.0446-.3988-.0357-.5981,.0268-.1952,.0464-.3653,.1359-.5101,.2685-.1633,.1058-.2921,.2461-.3864,.4209l-.1512,.3583c-.0714,.2658-.0714,.5317,0,.7975l.1512,.3583c.1334,.2254,.3127,.4048,.5381,.5381h0Z" style="fill:#fff;"></path></g><g style="opacity:.7;"><path d="M119.4109,351.3854h.1648c.2065,.0078,.3991-.0352,.5779-.1291,.186-.0605,.3469-.1639,.4827-.3102,.1463-.1359,.2497-.2968,.3102-.4827,.0939-.1788,.137-.3714,.1292-.578l-.0536-.3987c-.0713-.2541-.1999-.4748-.3858-.6619l-.3035-.2346c-.234-.1356-.4864-.2039-.7571-.2048h-.1648c-.2065-.0077-.3992,.0353-.5779,.1292-.186,.0605-.3469,.1639-.4828,.3102-.1463,.1359-.2496,.2968-.3101,.4827-.094,.1788-.137,.3714-.1292,.5779,.0178,.133,.0357,.2659,.0536,.3988,.0712,.2541,.1998,.4747,.3857,.6619l.3036,.2346c.234,.1356,.4863,.2039,.7571,.2047h0Z" style="fill:#fff;"></path></g><g style="opacity:.7;"><path d="M93.4167,333.044c7.6646-.4564,17.8022,.8347,20.9718,9.1248,.6826,1.7853,3.5841,1.0105,2.8929-.7975-1.5567-4.0715-4.7548-7.2349-8.6801-9.0802-4.7334-2.2253-10.0351-2.5538-15.1846-2.2471-1.9186,.1142-1.9316,3.115,0,3h0Z" style="fill:#fff;"></path></g><g style="opacity:.3;"><path d="M154.1304,373.6138c10.6432,9.117,25.0858,6.1933,31.3909-6.3048,.0686,7.2853-6.1224,13.8598-13.267,15.2435-7.1252,1.4742-15.3672-2.1983-18.1239-8.9387h0Z" style="fill:#fff;"></path></g><g style="opacity:.3;"><path d="M88.9738,364.0469c2.6043,3.7425,5.5099,8.5283,10.4132,8.6699,4.9442,.0066,7.3185-5.3617,9.2581-9.3627-.3563,2.486-.9041,5.0224-2.3679,7.2896-3.3879,5.5005-10.2799,5.1189-13.9787,.2896-1.6646-2.0772-2.5921-4.4797-3.3247-6.8864h0Z" style="fill:#fff;"></path></g><g style="opacity:.3;"><path d="M116.7422,392.7256c1.0744,5.59,7.2551,6.3903,9.4948,1.0819,.5611,1.678,1.6032,3.2627,3.227,4.0629,2.5366,1.4264,6.2101,.3962,7.062-2.5553,.4627-1.4051,.2029-3.0023-.5041-4.3807,.9116,1.2447,1.3951,2.913,1.0248,4.5222-1.5316,5.8002-9.5142,4.7779-11.3198-.3326l.8772,.0502c-2.7971,5.036-9.7234,3.2379-9.8619-2.4486h0Z" style="fill:#fff;"></path></g></g><path d="M113.4258,280.2575c24.778-20.3421,58.9692-25.1022,89.792-18.9417,31.2028,6.4124,57.9299,30.0108,69.2765,59.6261,7.45771,19.5556,8.8395,42.2432,.298,61.6387,9.5674-24.5281,4.65-52.8569-8.6685-75.0092-13.4617-22.148-35.8155-39.0357-61.2836-44.4919-30.8517-6.1944-63.8176-2.1837-89.4144,17.178h0Z" style="fill:#00FF13;"></path></g></g><g id="freepik--Flowers_1--inject-20"><g><path d="M424.70609,410.7261c1.8966-1.734,3.2855-4.3704,2.9512-6.9271-.3345-2.5568-2.8546-4.6303-5.1756-3.7378,2.93731-.2701,5.169-3.821,4.7824-6.9225-.386-3.1014-2.8637-5.4674-5.67309-6.2249-2.80951-.7576-5.87021-.1366-8.66581,1.0001,2.4394-2.5188,2.77281-6.996,.7171-9.6351-2.0556-2.639-6.1825-3.0321-8.8809-.8459-1.0119-7.7656-5.3466-15.2287-12.2059-17.7018-6.8596-2.4731-15.9808,1.6032-18.1223,9.2893-2.91619-3.9242-9.4519-2.7793-12.5564,1.3389-3.1047,4.1181-3.2774,9.951-1.8656,14.7941-2.5881-1.6462-6.218,1.333-6.7548,4.6224-.5366,3.2894,2.0483,5.7293,3.4785,8.5756,0,0-2.4955,2.9487,.1452,7.349,2.6408,4.4003,15.8037,16.1387,29.99691,18.6812,6.94989,1.245,12.91309-2.8044,12.91309-2.8044,5.7706,2.9693,13.2784,2.5635,17.5864,.3613,1.2947-.6619,2.6041-1.4161,3.5316-2.6027,.92791-1.1866,1.3874-2.9109,.7697-4.2276-.3775-.8046-1.2347-1.2903-2.0706-1.2941,1.81581-.8045,3.5986-1.7166,5.0989-3.088Z" style="fill:#00FF13;"></path><path d="M398.99779,420.0342c.4258,.171-2.9482-2.5832-3.9556-4.268-.9547-1.5965-1.0046-3.1701-2.0895-4.6811s-3.0618-2.6185-4.8012-1.9592c.7412-2.3717,.624-5.2171-1.0812-7.0245s-5.238-1.7683-6.3299,.4638c-.1671-2.9786-.3897-6.1265-2.086-8.5806-1.6962-2.4541-5.4213-3.7606-7.7405-1.8842-.2931-2.499-1.6766-4.9004-3.8276-6.2058-2.1509-1.3055-5.0516-1.3873-7.1557-.0075-1.7847,1.1703-2.56559,3.2681-2.9162,5.3733-.3505,2.1052-.1386,5.4228,.3201,7.507,0,0-1.3722-11.8276,4.7548-12.8242,0,0,7.4552-1.8442,8.1744,7.8058,0,0,2.9418-4.5269,7.5595-.0605,2.5959,2.5109,1.95481,13.2314,1.95481,13.2314,0,0,1.07929-7.7449,6.34569-4.8776,0,0,3.5715,1.9976,.7224,8.7581,0,0,2.4997-2.411,4.6381-.2275,2.119,2.1637,2.9844,7.6421,7.5136,9.4613Z" style="opacity:.3;"></path><path d="M399.79009,421.5772c1.0316-.9134,9.4162-1.4018,14.6175-5.3551,1.1957-.9088,2.7056-2.3445,3.5716-3.5715,1.1532-1.634,1.7469-3.8381,1.4815-5.3163-.4749-2.6452-3.6731-3.8425-6.3588-3.7444,1.41411-1.0809,2.6537-2.4655,3.251-4.1422s.4682-3.6715-.615-5.0839c-1.4422-1.8803-4.0991-2.2973-6.4674-2.2151-2.7378,.095-5.4586,.6624-8.0061,1.6698,1.1039-2.3499-.1057-6.1339-2.2666-7.573-2.1609-1.4392-4.9581-1.5908-7.513-1.1295-5.8075,1.0487-8.78679,6.5303-11.0657,11.9738,0,0,3.4792-14.4785,15.375-12.8654,2.558,.3469,3.9588,1.1743,5.417,3.3044,.784,1.1452,1.559,3.8109,1.0291,5.1454,0,0,11.2077-4.4837,14.6494,1.3923,2.4819,4.2374-2.0582,8.7716-2.0582,8.7716,0,0,4.94961,.5045,5.9352,4.4757,.7236,2.9154-2.1217,7.2171-5.2648,9.4402-4.3487,3.0759-15.7117,4.8232-15.7117,4.8232Z" style="opacity:.3;"></path><path d="M403.18029,391.2604c1.2034-5.9442,.2179-9.2919-1.1767-11.0181-1.3947-1.7262-3.9342-2.4199-6.0128-1.6424,.2025-2.8673-.877-5.8591-3.0577-7.7316-2.1808-1.8726-5.464-2.4659-8.059-1.2298-2.59509,1.2361-4.2247,4.3558-3.5134,7.1408-1.9125-1.9736-4.2024-3.7038-6.87369-4.3491-2.67141-.6454-5.76931-.0167-7.55281,2.0742-1.4138,1.6573-1.60419,3.4872-1.1623,5.6203,.4419,2.1332,1.43811,4.5821,2.94411,6.1561,0,0-5.46141-10.5033,1.09569-12.9005,6.5572-2.3972,13.4055,5.8723,13.194,5.8018-.17369-.0579-2.2029-6.2529,2.19731-8.5807,2.34849-1.2425,5.30929-.7628,7.256,1.0454,1.67,1.5512,3.20949,4.2747,2.60339,8.9454,0,0,2.1513-2.8647,5.5357-.7755,3.3843,2.0891,2.5822,11.4437,2.5822,11.4437Z" style="opacity:.3;"></path><g style="opacity:.3;"><path d="M411.40089,393.3646c-2.8175-.2375-4.6992,.0286-6.1198,.2604-3.0118,.4917-7.0964,2.6693-7.0964,2.6693,1.07031-1.9257,.8655-6.2205-.7431-7.7257-1.6088-1.5054-4.0435-1.9503-6.1782-1.405-2.1346,.5454-3.9698,1.9846-5.2888,3.7492-1.3194,1.7645-4.00059,6.0798-4.6243,8.1929,.2384-.0793,7.7493-2.2548,9.0954,4.3879,.3724,1.8381-.0823,3.5132-.0823,3.5132,3.7319-.3176,4.65261,3.1763,4.8114,4.7644,8.33221-2.5055,14.5009-5.7625,18.0957-9.8268,.9533-1.0779,1.7491-2.5889,1.7111-4.8037-.02459-1.4393-1.4793-3.5989-3.5807-3.7761Z" style="fill:#fff;"></path></g><g style="opacity:.3;"><path d="M363.84109,388.5886c-1.4057,.6041-2.3964,1.9428-2.8977,3.3884-.5012,1.4456-.5707,3.0024-.5689,4.5324,.00351,2.8776,.2801,5.8771,1.775,8.3359,1.5064,2.4779,4.0636,4.1057,6.60151,5.5087,2.11019,1.1667,4.27149,2.241,6.47559,3.2189,.5613,.249,1.2305,.488,1.76141,.1793,.71279-.4146,.63549-1.4517,.46419-2.2584-.8989-4.2329-1.7978-8.4657-2.6967-12.6986-.26449-1.2455-.7613-2.7329-2.0108-2.978-.6748-.1323-1.37,.1754-1.8958,.6185-.52589,.443-.9246,1.0143-1.374,1.5348-.56489,.6543-1.4846,1.2725-2.2308,.8359-.4837-.2831-.6519-.889-.7778-1.4351-.6402-2.7751-1.28029-5.5503-1.9204-8.3254" style="fill:#fff;"></path></g><g style="opacity:.3;"><path d="M391.73789,378.5853c-.3571-1.2136-1.0246-2.5339-2.25489-2.8281-1.21631-.2909-2.41911,.5783-3.16491,1.5823-1.055,1.4207-1.5918,3.2178-1.4883,4.9844-2.8841-1.9287-6.0286-3.4675-9.3211-4.5615-1.2102-.402-2.6529-.71-3.6694,.0599-.7558,.5724-1.0354,1.6172-.9064,2.5564,.1289,.9392,.6033,1.7938,1.1218,2.5875,1.9228,2.9435,4.5886,5.3975,7.6809,7.0705,3.84241-4.4958,7.9559-7.696,13.58641-8.067-.96041-.8239-1.22681-2.1706-1.58411-3.3844Z" style="fill:#fff;"></path></g></g><g><path d="M241.92519,423.171c.9977-1.8657,1.354-4.2932,.3942-6.1867-.96-1.8936-3.4845-2.8133-5.0422-1.4847,2.2067-1.0141,2.96681-4.3824,1.8172-6.6846-1.1491-2.3023-3.7209-3.4608-6.1097-3.2795s-4.5951,1.5018-6.4545,3.15c1.2043-2.6238,.23681-6.1914-2.0821-7.6774-2.3187-1.486-5.6307-.6609-7.127,1.7755-2.9126-5.7523-8.3222-10.3597-14.3253-10.4012-6.0034-.0414-11.969,5.6216-11.5267,12.1759-3.3389-2.2482-8.0999,.4308-9.3824,4.4786-1.2827,4.0478,.1808,8.6239,2.6033,11.9976-2.4604-.5694-4.4628,2.738-3.9786,5.439,.4843,2.7009,3.1595,3.8874,5.0495,5.7057,0,0-1.13,2.9729,2.1256,5.6661,3.2555,2.6933,16.6906,8.2023,28.407,6.2891,5.7372-.9368,9.2581-5.7142,9.2581-5.7142,5.2937,.725,11.0119-1.6463,13.7536-4.5361,.824-.8685,1.6341-1.8127,2.0292-2.988,.3954-1.1754,.28-2.6402-.5603-3.4933-.5134-.5213-1.312-.6636-1.96209-.4376,1.18949-1.122,2.32389-2.3185,3.11319-3.7942Z" style="fill:#00FF13;"></path><path d="M224.51379,437.4392c.3775,.0162-2.9965-1.1982-4.2402-2.2304-1.1785-.9781-1.6482-2.1863-2.9044-3.0623-1.2563-.876-3.0945-1.1945-4.2644-.2062-.0741-2.0444-.9444-4.2216-2.7634-5.1579s-4.5513,.0616-4.7877,2.0937c-.9455-2.2669-1.9806-4.65-3.96969-6.0909-1.98911-1.4409-5.2393-1.435-6.5261,.657-.912-1.86-2.6439-3.3456-4.6715-3.7701-2.0276-.4245-4.3022,.3065-5.558,1.9541-1.0651,1.3975-1.0969,3.2401-.7925,4.9707,.3043,1.7305,1.3775,4.2484,2.3046,5.741,0,0-4.3049-8.8075,.1793-11.2594,0,0,5.2834-3.4737,8.4848,3.8219,0,0,1.0442-4.3206,5.8529-2.1174,2.7032,1.2385,5.1416,9.7378,5.1416,9.7378,0,0-1.2832-6.3089,3.5911-5.5251,0,0,3.3202,.5729,2.9597,6.6023,0,0,1.2804-2.5567,3.5388-1.447,2.2378,1.0996,4.41031,5.1162,8.4251,5.2882Z" style="opacity:.3;"></path><path d="M225.55159,438.4202c.5508-.9917,6.9271-3.6673,9.8828-8.1613,.6795-1.0331,1.45861-2.5614,1.7949-3.7513,.4478-1.5845,.3052-3.4584-.3057-4.5334-1.0932-1.9238-3.9043-1.9775-5.9628-1.1657,.802-1.2266,1.38521-2.6411,1.3898-4.1066,.0045-1.4654-.6421-2.9789-1.8699-3.7788-1.6348-1.065-3.8119-.6611-5.6282,.0514-2.0997,.8236-4.0568,2.0093-5.7589,3.4892,.2135-2.1269-1.762-4.7336-3.834-5.2592-2.0719-.5255-4.2853,.1229-6.1427,1.1808-4.22189,2.4048-5.0338,7.4769-5.3123,12.3276,0,0-1.2641-12.1945,8.414-14.2001,2.0811-.4313,3.39541-.1725,5.111,1.0819,.92241,.6745,2.2542,2.532,2.2082,3.7133,0,0,7.4741-6.5509,11.7556-2.9312,3.08761,2.6103,.8044,7.3742,.8044,7.3742,0,0,3.98121-.9639,5.8341,1.8496,1.3603,2.0654,.3293,6.1846-1.5022,8.7716-2.5341,3.5793-10.8781,8.048-10.8781,8.048Z" style="opacity:.3;"></path><path d="M219.88059,413.9528c-.6938-4.9449-2.3758-7.2742-3.9314-8.2325s-3.7174-.8014-5.1183,.3715c-.6281-2.2816-2.2857-4.3089-4.4917-5.1656-2.2061-.8566-4.9178-.418-6.5941,1.2524-1.6763,1.6705-2.0872,4.539-.7722,6.5066-2.0254-1.0086-4.2772-1.7247-6.5281-1.4942-2.2509,.2306-4.484,1.5672-5.2961,3.6791-.6438,1.674-.2905,3.147,.6369,4.6822,.9273,1.5352,2.3715,3.1638,3.972,3.9734,0,0-7.1171-6.6593-2.6826-10.3165,4.4346-3.6572,12.01679,.8879,11.83329,.8911-.1508,.0026-3.423-4.2516-.6441-7.2642,1.4832-1.6079,3.9134-2.0463,5.9201-1.1756,1.7215,.7471,3.66271,2.4401,4.4714,6.2326,0,0,.8858-2.8135,4.0857-2.1184,3.1998,.6952,5.1392,8.1781,5.1392,8.1781Z" style="opacity:.3;"></path><g style="opacity:.3;"><path d="M226.83959,413.3351c-2.25259,.5872-3.6408,1.3092-4.6803,1.8783-2.2038,1.2066-4.7788,4.0161-4.7788,4.0161,.3036-1.7883-1.0317-5.0669-2.6929-5.795-1.6614-.7282-3.6737-.4068-5.1817,.6013-1.5081,1.008-2.5388,2.6281-3.0796,4.3594-.5412,1.7315-1.441,5.8163-1.3466,7.6279,.1634-.127,5.39931-3.8732,8.2637,.9158,.7927,1.3251,.8984,2.7503,.8984,2.7503,2.8105-1.2688,4.4824,1.1919,5.0406,2.3815,5.7832-4.2275,9.6807-8.4458,11.3587-12.586,.445-1.0981,.649-2.4892,.01291-4.1985-.41331-1.1107-2.13431-2.3891-3.81441-1.9511Z" style="fill:#fff;"></path></g><g style="opacity:.3;"><path d="M188.6045,422.6527c-.9259,.8541-1.3285,2.1648-1.3218,3.4245,.0068,1.2597,.3792,2.4874,.7997,3.6749,.7908,2.2333,1.8271,4.4865,3.6612,5.9861,1.8482,1.5114,4.2796,2.0749,6.6343,2.4692,1.958,.3278,3.9303,.57,5.9095,.7256,.504,.0396,1.0891,.0419,1.4167-.3432,.43991-.5172,.0958-1.3012-.25809-1.8806-1.85731-3.0404-3.71451-6.0807-5.57171-9.121-.5465-.8946-1.3396-1.9134-2.3769-1.7615-.5602,.0821-1.0156,.5114-1.3026,.9994s-.4401,1.0408-.6464,1.568c-.2594,.6628-.8042,1.3946-1.5031,1.26-.4532-.0873-.7497-.5117-.9971-.9012-1.257-1.9794-2.5141-3.9588-3.7712-5.9382" style="fill:#fff;"></path></g><g style="opacity:.3;"><path d="M207.52479,407.2454c-.6097-.8446-1.4895-1.6868-2.5253-1.5783-1.0241,.1072-1.7199,1.1115-2.0241,2.0953-.43,1.3921-.3545,2.9344,.20961,4.2777-2.76751-.7075-5.6304-1.0412-8.4865-.9888-1.0497,.0193-2.2542,.1753-2.8326,1.0515-.4301,.6514-.361,1.5392-.0036,2.2331,.3573,.694,.9597,1.2276,1.5796,1.7018,2.2992,1.7588,5.0411,2.9341,7.9003,3.3861,1.752-4.543,4.0694-8.1544,8.3395-9.9846-.9713-.3766-1.5471-1.3493-2.1569-2.1938Z" style="fill:#fff;"></path></g></g><g><path d="M313.09119,403.6975c1.057-1.8328,1.491-4.2476,.5924-6.1709-.8987-1.9234-3.3925-2.9236-4.9919-1.6456,2.238-.9429,3.1058-4.285,2.0307-6.623-1.0747-2.3379-3.608-3.5783-6.00139-3.4737-2.39341,.1046-4.641,1.3536-6.55221,2.9413,1.2878-2.5838,.4353-6.1806-1.83479-7.7402-2.26991-1.5596-5.60661-.8412-7.18031,1.546-2.7266-5.8428-7.9856-10.6213-13.9843-10.8554-5.999-.234-12.1431,5.2349-11.9113,11.7999-3.26509-2.3541-8.1096,.1708-9.5213,4.1754-1.41179,4.0045-.0959,8.6252,2.21721,12.0749-2.44081-.648-4.54831,2.5934-4.151,5.3086,.39739,2.7151,3.03319,3.9867,4.86389,5.8647,0,0-1.2248,2.9351,1.9427,5.7314,3.16741,2.7963,16.4189,8.7335,28.1907,7.1971,5.7642-.7524,9.4365-5.4143,9.4365-5.4143,5.2678,.8944,11.0591-1.2923,13.8921-4.0926,.8514-.8416,1.6914-1.7594,2.124-2.9214,.4329-1.1622,.3645-2.6299-.44789-3.5095-.49651-.5375-1.29011-.7054-1.94711-.5004,1.2249-1.0832,2.39711-2.2427,3.2333-3.6923Z" style="fill:#00FF13;"></path><path d="M295.23109,417.3999c.3767,.0282-2.9566-1.2937-4.1665-2.3653-1.1465-1.0154-1.5772-2.238-2.8047-3.1539s-3.0545-1.2931-4.2556-.3428c-.0085-2.0458-.8085-4.2498-2.5965-5.244-1.788-.9941-4.5509-.0843-4.8524,1.9391-.8723-2.296-1.83039-4.7112-3.7723-6.2151-1.9419-1.5039-5.1905-1.6023-6.5438,.4474-.8519-1.8884-2.5352-3.4287-4.5481-3.918-2.013-.4894-4.3099,.1683-5.6179,1.7747-1.1094,1.3626-1.2002,3.2033-.9515,4.9428,.2487,1.7394,1.2405,4.2903,2.11921,5.812,0,0-4.02011-8.9411,.54049-11.2479,0,0,5.3921-3.3025,8.3578,4.0921,0,0,1.1823-4.2849,5.91771-1.9286,2.66219,1.3246,4.82669,9.8978,4.82669,9.8978,0,0-1.0802-6.3469,3.7665-5.4071,0,0,3.3001,.679,2.7463,6.6938,0,0,1.3618-2.5143,3.5834-1.3327,2.2015,1.1708,4.2439,5.255,8.2512,5.5557Z" style="opacity:.3;"></path><path d="M296.23679,418.4137c.5824-.9736,7.0413-3.4433,10.1396-7.8402,.7123-1.0107,1.54-2.5132,1.9143-3.6917,.4984-1.5694,.416-3.4469-.1601-4.541-1.031-1.9578-3.8389-2.1016-5.9223-1.3563,.8408-1.2002,1.4691-2.5953,1.52071-4.0599,.05149-1.4645-.54611-2.998-1.74771-3.8369-1.5998-1.1169-3.7887-.7829-5.627-.1291-2.125,.7558-4.1191,1.8782-5.8678,3.3027,.2816-2.1189-1.6093-4.7877-3.6633-5.3794-2.0541-.5918-4.2871-.0147-6.1775,.9831-4.2968,2.2681-5.2709,7.3115-5.7049,12.1508,0,0-.8723-12.2287,8.8651-13.9229,2.0939-.3643,3.3992-.0635,5.0737,1.2454,.9002,.7037,2.1718,2.603,2.088,3.7821,0,0,7.6803-6.3078,11.8435-2.5526,3.0023,2.708,.5674,7.3963,.5674,7.3963,0,0,4.0101-.8357,5.7719,2.0357,1.2933,2.108,.1307,6.192-1.7829,8.7189-2.64749,3.4962-11.1307,7.695-11.1307,7.695Z" style="opacity:.3;"></path><path d="M291.35359,393.7769c-.5348-4.9646-2.1412-7.3467-3.6653-8.3544-1.524-1.0077-3.6898-.9202-5.1276,.2072-.5546-2.3006-2.1462-4.38-4.32369-5.307-2.17751-.9269-4.90181-.5756-6.63091,1.0403-1.729,1.6158-2.2316,4.4697-.9804,6.4784-1.9921-1.073-4.2198-1.861-6.4769-1.7028s-4.5319,1.4226-5.4114,3.5073c-.6971,1.6525-.3913,3.136,.4864,4.7002,.8776,1.5642,2.2688,3.2383,3.8425,4.0988,0,0-6.8998-6.8842-2.3502-10.3972,4.5496-3.5131,11.9821,1.2729,11.7986,1.2702-.1508-.0023-3.2849-4.3592-.4108-7.2811,1.534-1.5595,3.977-1.9198,5.9548-.9851,1.6967,.8019,3.5825,2.5562,4.2691,6.3727,0,0,.9756-2.7836,4.1515-1.9862,3.176,.7975,4.8743,8.3387,4.8743,8.3387Z" style="opacity:.3;"></path><g style="opacity:.3;"><path d="M298.32879,393.3827c-2.2703,.5147-3.6809,1.1918-4.7381,1.7273-2.2414,1.1353-4.9052,3.8607-4.9052,3.8607,.3609-1.7776-.8686-5.0973-2.5056-5.8784-1.6372-.7811-3.6587-.5244-5.1983,.4348-1.53959,.9591-2.6218,2.5454-3.2179,4.2584-.5964,1.7132-1.6268,5.7671-1.5905,7.5807,.1673-.1216,5.5207-3.698,8.2301,1.1804,.74971,1.3499,.8096,2.7777,.8096,2.7777,2.8499-1.1779,4.4419,1.3351,4.9617,2.542,5.9158-4.0398,9.9466-8.1309,11.7565-12.2152,.48-1.0832,.7286-2.467,.1476-4.1959-.3775-1.1234-2.0565-2.4563-3.7499-2.0725Z" style="fill:#fff;"></path></g><g style="opacity:.3;"><path d="M259.81459,401.4691c-.9529,.824-1.3973,2.1211-1.431,3.3804-.03359,1.2593,.2992,2.4983,.68141,3.6987,.71869,2.2575,1.68219,4.5427,3.46729,6.1004,1.7988,1.5699,4.2108,2.2111,6.55171,2.6807,1.94649,.3905,3.91,.6958,5.88319,.9148,.5025,.0558,1.0872,.0768,1.427-.2976,.4563-.5027,.1375-1.2974-.1977-1.8879-1.7588-3.0983-3.51749-6.1967-5.2763-9.295-.5175-.9117-1.2775-1.9554-2.3191-1.8368-.5625,.064-1.0315,.4785-1.334,.9571-.3025,.4785-.4732,1.0261-.6964,1.5464-.2805,.6541-.8485,1.3681-1.5428,1.2111-.4501-.1017-.7328-.5354-.9676-.9327-1.1929-2.0187-2.3858-4.0373-3.5787-6.056" style="fill:#fff;"></path></g><g style="opacity:.3;"><path d="M279.21929,386.6766c-.58229-.8636-1.4346-1.7337-2.4734-1.6585-1.027,.0744-1.7547,1.0558-2.0902,2.0294-.4744,1.3775-.4485,2.9215,.07231,4.2822-2.74341-.796-5.59421-1.2212-8.45041-1.2605-1.0498-.0144-2.2587,.1029-2.865,.9601-.4507,.6373-.4101,1.5269-.0751,2.2318,.3348,.7051,.9198,1.2577,1.5242,1.7516,2.2416,1.8317,4.94431,3.0943,7.7875,3.6377,1.8969-4.4844,4.3289-8.0196,8.6555-9.7119-.95869-.4076-1.503-1.3982-2.0854-2.2619Z" style="fill:#fff;"></path></g></g></g></svg>
